<svg xmlns="http://www.w3.org/2000/svg" xmlns:xlink="http://www.w3.org/1999/xlink" width="1440" height="925" viewBox="0 0 1440 925">
    <defs>
        <path id="prefix__a" d="M0 0L1440 137 1440 925 0 925z"/>
    </defs>
    <g fill="none" fill-rule="evenodd">
        <mask id="prefix__b" fill="#fff">
            <use xlink:href="#prefix__a"/>
        </mask>
        <use fill="#FF8539" xlink:href="#prefix__a"/>
        <g mask="url(#prefix__b)" opacity=".768">
            <g>
                <g>
                    <path stroke="#FF721B" d="M0 245.828L111.396 157.811 222.792 245.828 222.792 298.088 111.396 210.071 0 298.088zM0 456.243L111.396 368.226 222.792 456.243 222.792 508.503 111.396 420.486 0 508.503zM445.585 245.828L556.981 157.811 668.377 245.828 668.377 298.088 556.981 210.071 445.585 298.088zM445.585 456.243L556.981 368.226 668.377 456.243 668.377 508.503 556.981 420.486 445.585 508.503z" transform="translate(-161 423) translate(0 26)"/>
                    <path stroke="#FF721B" d="M0 140.621L111.396 52.604 222.792 140.621 222.792 192.881 111.396 104.864 0 192.881zM0 351.036L111.396 263.019 222.792 351.036 222.792 403.296 111.396 315.279 0 403.296zM445.585 140.621L556.981 52.604 668.377 140.621 668.377 192.881 556.981 104.864 445.585 192.881zM445.585 351.036L556.981 263.019 668.377 351.036 668.377 403.296 556.981 315.279 445.585 403.296z" transform="translate(-161 423) translate(0 26)"/>
                    <path fill="#FF721B" d="M222.792 245.828L334.189 157.811 445.585 245.828 445.585 298.088 334.189 210.071 222.792 298.088zM222.792 456.243L334.189 368.226 445.585 456.243 445.585 508.503 334.189 420.486 222.792 508.503zM668.377 245.828L779.774 157.811 891.17 245.828 891.17 298.088 779.774 210.071 668.377 298.088zM668.377 456.243L779.774 368.226 891.17 456.243 891.17 508.503 779.774 420.486 668.377 508.503z" transform="translate(-161 423) translate(0 26)"/>
                    <path fill="#FF721B" d="M222.792 140.621L334.189 52.604 445.585 140.621 445.585 192.881 334.189 104.864 222.792 192.881zM222.792 351.036L334.189 263.019 445.585 351.036 445.585 403.296 334.189 315.279 222.792 403.296zM668.377 140.621L779.774 52.604 891.17 140.621 891.17 192.881 779.774 104.864 668.377 192.881zM668.377 351.036L779.774 263.019 891.17 351.036 891.17 403.296 779.774 315.279 668.377 403.296zM0 193.224L111.396 105.208 222.792 193.224 222.792 245.484 111.396 157.468 0 245.484zM0 403.639L111.396 315.623 222.792 403.639 222.792 455.899 111.396 367.883 0 455.899zM445.585 193.224L556.981 105.208 668.377 193.224 668.377 245.484 556.981 157.468 445.585 245.484zM445.585 403.639L556.981 315.623 668.377 403.639 668.377 455.899 556.981 367.883 445.585 455.899z" transform="translate(-161 423) translate(0 26)"/>
                    <path fill="#FF721B" d="M0 88.017L111.396 0 222.792 88.017 222.792 140.277 111.396 52.26 0 140.277zM0 563.514L111.396 475.497 222.792 563.514 222.792 615.774 111.396 527.757 0 615.774zM0 298.432L111.396 210.415 222.792 298.432 222.792 350.692 111.396 262.675 0 350.692zM445.585 88.017L556.981 0 668.377 88.017 668.377 140.277 556.981 52.26 445.585 140.277zM445.585 563.514L556.981 475.497 668.377 563.514 668.377 615.774 556.981 527.757 445.585 615.774zM445.585 298.432L556.981 210.415 668.377 298.432 668.377 350.692 556.981 262.675 445.585 350.692z" transform="translate(-161 423) translate(0 26)"/>
                    <path stroke="#FF721B" d="M222.792 193.224L334.189 105.208 445.585 193.224 445.585 245.484 334.189 157.468 222.792 245.484zM222.792 403.639L334.189 315.623 445.585 403.639 445.585 455.899 334.189 367.883 222.792 455.899zM668.377 193.224L779.774 105.208 891.17 193.224 891.17 245.484 779.774 157.468 668.377 245.484zM668.377 403.639L779.774 315.623 891.17 403.639 891.17 455.899 779.774 367.883 668.377 455.899z" transform="translate(-161 423) translate(0 26)"/>
                    <path stroke="#FF721B" d="M222.792 88.017L334.189 0 445.585 88.017 445.585 140.277 334.189 52.26 222.792 140.277zM222.792 563.514L334.189 475.497 445.585 563.514 445.585 615.774 334.189 527.757 222.792 615.774zM222.792 298.432L334.189 210.415 445.585 298.432 445.585 350.692 334.189 262.675 222.792 350.692zM668.377 88.017L779.774 0 891.17 88.017 891.17 140.277 779.774 52.26 668.377 140.277zM668.377 563.514L779.774 475.497 891.17 563.514 891.17 615.774 779.774 527.757 668.377 615.774zM668.377 298.432L779.774 210.415 891.17 298.432 891.17 350.692 779.774 262.675 668.377 350.692z" transform="translate(-161 423) translate(0 26)"/>
                </g>
                <g>
                    <path stroke="#FF721B" d="M0 245.828L111.396 157.811 222.792 245.828 222.792 298.088 111.396 210.071 0 298.088zM0 456.243L111.396 368.226 222.792 456.243 222.792 508.503 111.396 420.486 0 508.503zM445.585 245.828L556.981 157.811 668.377 245.828 668.377 298.088 556.981 210.071 445.585 298.088zM445.585 456.243L556.981 368.226 668.377 456.243 668.377 508.503 556.981 420.486 445.585 508.503z" transform="translate(-161 423) translate(892)"/>
                    <path stroke="#FF721B" d="M0 140.621L111.396 52.604 222.792 140.621 222.792 192.881 111.396 104.864 0 192.881zM0 351.036L111.396 263.019 222.792 351.036 222.792 403.296 111.396 315.279 0 403.296zM445.585 140.621L556.981 52.604 668.377 140.621 668.377 192.881 556.981 104.864 445.585 192.881zM445.585 351.036L556.981 263.019 668.377 351.036 668.377 403.296 556.981 315.279 445.585 403.296z" transform="translate(-161 423) translate(892)"/>
                    <path fill="#FF721B" d="M222.792 245.828L334.189 157.811 445.585 245.828 445.585 298.088 334.189 210.071 222.792 298.088zM222.792 456.243L334.189 368.226 445.585 456.243 445.585 508.503 334.189 420.486 222.792 508.503zM668.377 245.828L779.774 157.811 891.17 245.828 891.17 298.088 779.774 210.071 668.377 298.088zM668.377 456.243L779.774 368.226 891.17 456.243 891.17 508.503 779.774 420.486 668.377 508.503z" transform="translate(-161 423) translate(892)"/>
                    <path fill="#FF721B" d="M222.792 140.621L334.189 52.604 445.585 140.621 445.585 192.881 334.189 104.864 222.792 192.881zM222.792 351.036L334.189 263.019 445.585 351.036 445.585 403.296 334.189 315.279 222.792 403.296zM668.377 140.621L779.774 52.604 891.17 140.621 891.17 192.881 779.774 104.864 668.377 192.881zM668.377 351.036L779.774 263.019 891.17 351.036 891.17 403.296 779.774 315.279 668.377 403.296zM0 193.224L111.396 105.208 222.792 193.224 222.792 245.484 111.396 157.468 0 245.484zM0 403.639L111.396 315.623 222.792 403.639 222.792 455.899 111.396 367.883 0 455.899zM445.585 193.224L556.981 105.208 668.377 193.224 668.377 245.484 556.981 157.468 445.585 245.484zM445.585 403.639L556.981 315.623 668.377 403.639 668.377 455.899 556.981 367.883 445.585 455.899z" transform="translate(-161 423) translate(892)"/>
                    <path fill="#FF721B" d="M0 88.017L111.396 0 222.792 88.017 222.792 140.277 111.396 52.26 0 140.277zM0 563.514L111.396 475.497 222.792 563.514 222.792 615.774 111.396 527.757 0 615.774zM0 298.432L111.396 210.415 222.792 298.432 222.792 350.692 111.396 262.675 0 350.692zM445.585 88.017L556.981 0 668.377 88.017 668.377 140.277 556.981 52.26 445.585 140.277zM445.585 563.514L556.981 475.497 668.377 563.514 668.377 615.774 556.981 527.757 445.585 615.774zM445.585 298.432L556.981 210.415 668.377 298.432 668.377 350.692 556.981 262.675 445.585 350.692z" transform="translate(-161 423) translate(892)"/>
                    <path stroke="#FF721B" d="M222.792 193.224L334.189 105.208 445.585 193.224 445.585 245.484 334.189 157.468 222.792 245.484zM222.792 403.639L334.189 315.623 445.585 403.639 445.585 455.899 334.189 367.883 222.792 455.899zM668.377 193.224L779.774 105.208 891.17 193.224 891.17 245.484 779.774 157.468 668.377 245.484zM668.377 403.639L779.774 315.623 891.17 403.639 891.17 455.899 779.774 367.883 668.377 455.899z" transform="translate(-161 423) translate(892)"/>
                    <path stroke="#FF721B" d="M222.792 88.017L334.189 0 445.585 88.017 445.585 140.277 334.189 52.26 222.792 140.277zM222.792 563.514L334.189 475.497 445.585 563.514 445.585 615.774 334.189 527.757 222.792 615.774zM222.792 298.432L334.189 210.415 445.585 298.432 445.585 350.692 334.189 262.675 222.792 350.692zM668.377 88.017L779.774 0 891.17 88.017 891.17 140.277 779.774 52.26 668.377 140.277zM668.377 563.514L779.774 475.497 891.17 563.514 891.17 615.774 779.774 527.757 668.377 615.774zM668.377 298.432L779.774 210.415 891.17 298.432 891.17 350.692 779.774 262.675 668.377 350.692z" transform="translate(-161 423) translate(892)"/>
                </g>
            </g>
        </g>
    </g>
</svg>
