<?xml version="1.0" encoding="UTF-8"?>
<svg width="1920px" height="941px" viewBox="0 0 1920 941" version="1.1" xmlns="http://www.w3.org/2000/svg" xmlns:xlink="http://www.w3.org/1999/xlink">
    <!-- Generator: Sketch 63.1 (92452) - https://sketch.com -->
    <title>backgound</title>
    <desc>Created with Sketch.</desc>
    <defs>
        <polygon id="path-1" points="-1.67948988e-12 0 1920 180 1920 941 -1.67948988e-12 941"></polygon>
    </defs>
    <g id="backgound" stroke="none" stroke-width="1" fill="none" fill-rule="evenodd">
        <g id="Group-2" transform="translate(-1.000000, 0.000000)">
            <mask id="mask-2" fill="white">
                <use xlink:href="#path-1"></use>
            </mask>
            <use id="Mask" fill="#FF8539" xlink:href="#path-1"></use>
            <g id="Group-10" mask="url(#mask-2)" opacity="0.768391927">
                <g transform="translate(-161.000000, 423.000000)" id="Group-2">
                    <g transform="translate(0.000000, 26.000000)">
                        <polygon id="Path" stroke="#FF721B" points="0 245.828092 111.396226 157.811321 222.792453 245.828092 222.792453 298.08805 111.396226 210.071279 0 298.08805"></polygon>
                        <polygon id="Path" stroke="#FF721B" points="0 456.243187 111.396226 368.226415 222.792453 456.243187 222.792453 508.503145 111.396226 420.486373 0 508.503145"></polygon>
                        <polygon id="Path" stroke="#FF721B" points="445.584906 245.828092 556.981132 157.811321 668.377358 245.828092 668.377358 298.08805 556.981132 210.071279 445.584906 298.08805"></polygon>
                        <polygon id="Path" stroke="#FF721B" points="445.584906 456.243187 556.981132 368.226415 668.377358 456.243187 668.377358 508.503145 556.981132 420.486373 445.584906 508.503145"></polygon>
                        <polygon id="Path" stroke="#FF721B" points="0 140.620545 111.396226 52.6037736 222.792453 140.620545 222.792453 192.880503 111.396226 104.863732 0 192.880503"></polygon>
                        <polygon id="Path" stroke="#FF721B" points="0 351.035639 111.396226 263.018868 222.792453 351.035639 222.792453 403.295597 111.396226 315.278826 0 403.295597"></polygon>
                        <polygon id="Path" stroke="#FF721B" points="445.584906 140.620545 556.981132 52.6037736 668.377358 140.620545 668.377358 192.880503 556.981132 104.863732 445.584906 192.880503"></polygon>
                        <polygon id="Path" stroke="#FF721B" points="445.584906 351.035639 556.981132 263.018868 668.377358 351.035639 668.377358 403.295597 556.981132 315.278826 445.584906 403.295597"></polygon>
                        <polygon id="Path" fill="#FF721B" points="222.792453 245.828092 334.188679 157.811321 445.584906 245.828092 445.584906 298.08805 334.188679 210.071279 222.792453 298.08805"></polygon>
                        <polygon id="Path" fill="#FF721B" points="222.792453 456.243187 334.188679 368.226415 445.584906 456.243187 445.584906 508.503145 334.188679 420.486373 222.792453 508.503145"></polygon>
                        <polygon id="Path" fill="#FF721B" points="668.377358 245.828092 779.773585 157.811321 891.169811 245.828092 891.169811 298.08805 779.773585 210.071279 668.377358 298.08805"></polygon>
                        <polygon id="Path" fill="#FF721B" points="668.377358 456.243187 779.773585 368.226415 891.169811 456.243187 891.169811 508.503145 779.773585 420.486373 668.377358 508.503145"></polygon>
                        <polygon id="Path" fill="#FF721B" points="222.792453 140.620545 334.188679 52.6037736 445.584906 140.620545 445.584906 192.880503 334.188679 104.863732 222.792453 192.880503"></polygon>
                        <polygon id="Path" fill="#FF721B" points="222.792453 351.035639 334.188679 263.018868 445.584906 351.035639 445.584906 403.295597 334.188679 315.278826 222.792453 403.295597"></polygon>
                        <polygon id="Path" fill="#FF721B" points="668.377358 140.620545 779.773585 52.6037736 891.169811 140.620545 891.169811 192.880503 779.773585 104.863732 668.377358 192.880503"></polygon>
                        <polygon id="Path" fill="#FF721B" points="668.377358 351.035639 779.773585 263.018868 891.169811 351.035639 891.169811 403.295597 779.773585 315.278826 668.377358 403.295597"></polygon>
                        <polygon id="Path" fill="#FF721B" points="0 193.224319 111.396226 105.207547 222.792453 193.224319 222.792453 245.484277 111.396226 157.467505 0 245.484277"></polygon>
                        <polygon id="Path" fill="#FF721B" points="0 403.639413 111.396226 315.622642 222.792453 403.639413 222.792453 455.899371 111.396226 367.8826 0 455.899371"></polygon>
                        <polygon id="Path" fill="#FF721B" points="445.584906 193.224319 556.981132 105.207547 668.377358 193.224319 668.377358 245.484277 556.981132 157.467505 445.584906 245.484277"></polygon>
                        <polygon id="Path" fill="#FF721B" points="445.584906 403.639413 556.981132 315.622642 668.377358 403.639413 668.377358 455.899371 556.981132 367.8826 445.584906 455.899371"></polygon>
                        <polygon id="Path" fill="#FF721B" points="0 88.0167715 111.396226 1.17261896e-13 222.792453 88.0167715 222.792453 140.27673 111.396226 52.2599581 0 140.27673"></polygon>
                        <polygon id="Path" fill="#FF721B" points="0 563.513627 111.396226 475.496855 222.792453 563.513627 222.792453 615.773585 111.396226 527.756813 0 615.773585"></polygon>
                        <polygon id="Path" fill="#FF721B" points="0 298.431866 111.396226 210.415094 222.792453 298.431866 222.792453 350.691824 111.396226 262.675052 0 350.691824"></polygon>
                        <polygon id="Path" fill="#FF721B" points="445.584906 88.0167715 556.981132 1.17261896e-13 668.377358 88.0167715 668.377358 140.27673 556.981132 52.2599581 445.584906 140.27673"></polygon>
                        <polygon id="Path" fill="#FF721B" points="445.584906 563.513627 556.981132 475.496855 668.377358 563.513627 668.377358 615.773585 556.981132 527.756813 445.584906 615.773585"></polygon>
                        <polygon id="Path" fill="#FF721B" points="445.584906 298.431866 556.981132 210.415094 668.377358 298.431866 668.377358 350.691824 556.981132 262.675052 445.584906 350.691824"></polygon>
                        <polygon id="Path" stroke="#FF721B" points="222.792453 193.224319 334.188679 105.207547 445.584906 193.224319 445.584906 245.484277 334.188679 157.467505 222.792453 245.484277"></polygon>
                        <polygon id="Path" stroke="#FF721B" points="222.792453 403.639413 334.188679 315.622642 445.584906 403.639413 445.584906 455.899371 334.188679 367.8826 222.792453 455.899371"></polygon>
                        <polygon id="Path" stroke="#FF721B" points="668.377358 193.224319 779.773585 105.207547 891.169811 193.224319 891.169811 245.484277 779.773585 157.467505 668.377358 245.484277"></polygon>
                        <polygon id="Path" stroke="#FF721B" points="668.377358 403.639413 779.773585 315.622642 891.169811 403.639413 891.169811 455.899371 779.773585 367.8826 668.377358 455.899371"></polygon>
                        <polygon id="Path" stroke="#FF721B" points="222.792453 88.0167715 334.188679 0 445.584906 88.0167715 445.584906 140.27673 334.188679 52.2599581 222.792453 140.27673"></polygon>
                        <polygon id="Path" stroke="#FF721B" points="222.792453 563.513627 334.188679 475.496855 445.584906 563.513627 445.584906 615.773585 334.188679 527.756813 222.792453 615.773585"></polygon>
                        <polygon id="Path" stroke="#FF721B" points="222.792453 298.431866 334.188679 210.415094 445.584906 298.431866 445.584906 350.691824 334.188679 262.675052 222.792453 350.691824"></polygon>
                        <polygon id="Path" stroke="#FF721B" points="668.377358 88.0167715 779.773585 0 891.169811 88.0167715 891.169811 140.27673 779.773585 52.2599581 668.377358 140.27673"></polygon>
                        <polygon id="Path" stroke="#FF721B" points="668.377358 563.513627 779.773585 475.496855 891.169811 563.513627 891.169811 615.773585 779.773585 527.756813 668.377358 615.773585"></polygon>
                        <polygon id="Path" stroke="#FF721B" points="668.377358 298.431866 779.773585 210.415094 891.169811 298.431866 891.169811 350.691824 779.773585 262.675052 668.377358 350.691824"></polygon>
                    </g>
                    <g transform="translate(892.000000, 0.000000)">
                        <polygon id="Path" stroke="#FF721B" points="0 245.828092 111.396226 157.811321 222.792453 245.828092 222.792453 298.08805 111.396226 210.071279 0 298.08805"></polygon>
                        <polygon id="Path" stroke="#FF721B" points="0 456.243187 111.396226 368.226415 222.792453 456.243187 222.792453 508.503145 111.396226 420.486373 0 508.503145"></polygon>
                        <polygon id="Path" stroke="#FF721B" points="445.584906 245.828092 556.981132 157.811321 668.377358 245.828092 668.377358 298.08805 556.981132 210.071279 445.584906 298.08805"></polygon>
                        <polygon id="Path" stroke="#FF721B" points="445.584906 456.243187 556.981132 368.226415 668.377358 456.243187 668.377358 508.503145 556.981132 420.486373 445.584906 508.503145"></polygon>
                        <polygon id="Path" stroke="#FF721B" points="0 140.620545 111.396226 52.6037736 222.792453 140.620545 222.792453 192.880503 111.396226 104.863732 0 192.880503"></polygon>
                        <polygon id="Path" stroke="#FF721B" points="0 351.035639 111.396226 263.018868 222.792453 351.035639 222.792453 403.295597 111.396226 315.278826 0 403.295597"></polygon>
                        <polygon id="Path" stroke="#FF721B" points="445.584906 140.620545 556.981132 52.6037736 668.377358 140.620545 668.377358 192.880503 556.981132 104.863732 445.584906 192.880503"></polygon>
                        <polygon id="Path" stroke="#FF721B" points="445.584906 351.035639 556.981132 263.018868 668.377358 351.035639 668.377358 403.295597 556.981132 315.278826 445.584906 403.295597"></polygon>
                        <polygon id="Path" fill="#FF721B" points="222.792453 245.828092 334.188679 157.811321 445.584906 245.828092 445.584906 298.08805 334.188679 210.071279 222.792453 298.08805"></polygon>
                        <polygon id="Path" fill="#FF721B" points="222.792453 456.243187 334.188679 368.226415 445.584906 456.243187 445.584906 508.503145 334.188679 420.486373 222.792453 508.503145"></polygon>
                        <polygon id="Path" fill="#FF721B" points="668.377358 245.828092 779.773585 157.811321 891.169811 245.828092 891.169811 298.08805 779.773585 210.071279 668.377358 298.08805"></polygon>
                        <polygon id="Path" fill="#FF721B" points="668.377358 456.243187 779.773585 368.226415 891.169811 456.243187 891.169811 508.503145 779.773585 420.486373 668.377358 508.503145"></polygon>
                        <polygon id="Path" fill="#FF721B" points="222.792453 140.620545 334.188679 52.6037736 445.584906 140.620545 445.584906 192.880503 334.188679 104.863732 222.792453 192.880503"></polygon>
                        <polygon id="Path" fill="#FF721B" points="222.792453 351.035639 334.188679 263.018868 445.584906 351.035639 445.584906 403.295597 334.188679 315.278826 222.792453 403.295597"></polygon>
                        <polygon id="Path" fill="#FF721B" points="668.377358 140.620545 779.773585 52.6037736 891.169811 140.620545 891.169811 192.880503 779.773585 104.863732 668.377358 192.880503"></polygon>
                        <polygon id="Path" fill="#FF721B" points="668.377358 351.035639 779.773585 263.018868 891.169811 351.035639 891.169811 403.295597 779.773585 315.278826 668.377358 403.295597"></polygon>
                        <polygon id="Path" fill="#FF721B" points="0 193.224319 111.396226 105.207547 222.792453 193.224319 222.792453 245.484277 111.396226 157.467505 0 245.484277"></polygon>
                        <polygon id="Path" fill="#FF721B" points="0 403.639413 111.396226 315.622642 222.792453 403.639413 222.792453 455.899371 111.396226 367.8826 0 455.899371"></polygon>
                        <polygon id="Path" fill="#FF721B" points="445.584906 193.224319 556.981132 105.207547 668.377358 193.224319 668.377358 245.484277 556.981132 157.467505 445.584906 245.484277"></polygon>
                        <polygon id="Path" fill="#FF721B" points="445.584906 403.639413 556.981132 315.622642 668.377358 403.639413 668.377358 455.899371 556.981132 367.8826 445.584906 455.899371"></polygon>
                        <polygon id="Path" fill="#FF721B" points="0 88.0167715 111.396226 1.17261896e-13 222.792453 88.0167715 222.792453 140.27673 111.396226 52.2599581 0 140.27673"></polygon>
                        <polygon id="Path" fill="#FF721B" points="0 563.513627 111.396226 475.496855 222.792453 563.513627 222.792453 615.773585 111.396226 527.756813 0 615.773585"></polygon>
                        <polygon id="Path" fill="#FF721B" points="0 298.431866 111.396226 210.415094 222.792453 298.431866 222.792453 350.691824 111.396226 262.675052 0 350.691824"></polygon>
                        <polygon id="Path" fill="#FF721B" points="445.584906 88.0167715 556.981132 1.17261896e-13 668.377358 88.0167715 668.377358 140.27673 556.981132 52.2599581 445.584906 140.27673"></polygon>
                        <polygon id="Path" fill="#FF721B" points="445.584906 563.513627 556.981132 475.496855 668.377358 563.513627 668.377358 615.773585 556.981132 527.756813 445.584906 615.773585"></polygon>
                        <polygon id="Path" fill="#FF721B" points="445.584906 298.431866 556.981132 210.415094 668.377358 298.431866 668.377358 350.691824 556.981132 262.675052 445.584906 350.691824"></polygon>
                        <polygon id="Path" stroke="#FF721B" points="222.792453 193.224319 334.188679 105.207547 445.584906 193.224319 445.584906 245.484277 334.188679 157.467505 222.792453 245.484277"></polygon>
                        <polygon id="Path" stroke="#FF721B" points="222.792453 403.639413 334.188679 315.622642 445.584906 403.639413 445.584906 455.899371 334.188679 367.8826 222.792453 455.899371"></polygon>
                        <polygon id="Path" stroke="#FF721B" points="668.377358 193.224319 779.773585 105.207547 891.169811 193.224319 891.169811 245.484277 779.773585 157.467505 668.377358 245.484277"></polygon>
                        <polygon id="Path" stroke="#FF721B" points="668.377358 403.639413 779.773585 315.622642 891.169811 403.639413 891.169811 455.899371 779.773585 367.8826 668.377358 455.899371"></polygon>
                        <polygon id="Path" stroke="#FF721B" points="222.792453 88.0167715 334.188679 0 445.584906 88.0167715 445.584906 140.27673 334.188679 52.2599581 222.792453 140.27673"></polygon>
                        <polygon id="Path" stroke="#FF721B" points="222.792453 563.513627 334.188679 475.496855 445.584906 563.513627 445.584906 615.773585 334.188679 527.756813 222.792453 615.773585"></polygon>
                        <polygon id="Path" stroke="#FF721B" points="222.792453 298.431866 334.188679 210.415094 445.584906 298.431866 445.584906 350.691824 334.188679 262.675052 222.792453 350.691824"></polygon>
                        <polygon id="Path" stroke="#FF721B" points="668.377358 88.0167715 779.773585 0 891.169811 88.0167715 891.169811 140.27673 779.773585 52.2599581 668.377358 140.27673"></polygon>
                        <polygon id="Path" stroke="#FF721B" points="668.377358 563.513627 779.773585 475.496855 891.169811 563.513627 891.169811 615.773585 779.773585 527.756813 668.377358 615.773585"></polygon>
                        <polygon id="Path" stroke="#FF721B" points="668.377358 298.431866 779.773585 210.415094 891.169811 298.431866 891.169811 350.691824 779.773585 262.675052 668.377358 350.691824"></polygon>
                    </g>
                    <g transform="translate(1784.000000, 0.000000)">
                        <polygon id="Path" stroke="#FF721B" points="0 245.828092 111.396226 157.811321 222.792453 245.828092 222.792453 298.08805 111.396226 210.071279 0 298.08805"></polygon>
                        <polygon id="Path" stroke="#FF721B" points="0 456.243187 111.396226 368.226415 222.792453 456.243187 222.792453 508.503145 111.396226 420.486373 0 508.503145"></polygon>
                        <polygon id="Path" stroke="#FF721B" points="0 140.620545 111.396226 52.6037736 222.792453 140.620545 222.792453 192.880503 111.396226 104.863732 0 192.880503"></polygon>
                        <polygon id="Path" stroke="#FF721B" points="0 351.035639 111.396226 263.018868 222.792453 351.035639 222.792453 403.295597 111.396226 315.278826 0 403.295597"></polygon>
                        <polygon id="Path" fill="#FF721B" points="222.792453 245.828092 334.188679 157.811321 445.584906 245.828092 445.584906 298.08805 334.188679 210.071279 222.792453 298.08805"></polygon>
                        <polygon id="Path" fill="#FF721B" points="222.792453 456.243187 334.188679 368.226415 445.584906 456.243187 445.584906 508.503145 334.188679 420.486373 222.792453 508.503145"></polygon>
                        <polygon id="Path" fill="#FF721B" points="222.792453 140.620545 334.188679 52.6037736 445.584906 140.620545 445.584906 192.880503 334.188679 104.863732 222.792453 192.880503"></polygon>
                        <polygon id="Path" fill="#FF721B" points="222.792453 351.035639 334.188679 263.018868 445.584906 351.035639 445.584906 403.295597 334.188679 315.278826 222.792453 403.295597"></polygon>
                        <polygon id="Path" fill="#FF721B" points="0 193.224319 111.396226 105.207547 222.792453 193.224319 222.792453 245.484277 111.396226 157.467505 0 245.484277"></polygon>
                        <polygon id="Path" fill="#FF721B" points="0 403.639413 111.396226 315.622642 222.792453 403.639413 222.792453 455.899371 111.396226 367.8826 0 455.899371"></polygon>
                        <polygon id="Path" fill="#FF721B" points="0 88.0167715 111.396226 1.17261896e-13 222.792453 88.0167715 222.792453 140.27673 111.396226 52.2599581 0 140.27673"></polygon>
                        <polygon id="Path" fill="#FF721B" points="0 563.513627 111.396226 475.496855 222.792453 563.513627 222.792453 615.773585 111.396226 527.756813 0 615.773585"></polygon>
                        <polygon id="Path" fill="#FF721B" points="0 298.431866 111.396226 210.415094 222.792453 298.431866 222.792453 350.691824 111.396226 262.675052 0 350.691824"></polygon>
                        <polygon id="Path" stroke="#FF721B" points="222.792453 193.224319 334.188679 105.207547 445.584906 193.224319 445.584906 245.484277 334.188679 157.467505 222.792453 245.484277"></polygon>
                        <polygon id="Path" stroke="#FF721B" points="222.792453 403.639413 334.188679 315.622642 445.584906 403.639413 445.584906 455.899371 334.188679 367.8826 222.792453 455.899371"></polygon>
                        <polygon id="Path" stroke="#FF721B" points="222.792453 88.0167715 334.188679 0 445.584906 88.0167715 445.584906 140.27673 334.188679 52.2599581 222.792453 140.27673"></polygon>
                        <polygon id="Path" stroke="#FF721B" points="222.792453 563.513627 334.188679 475.496855 445.584906 563.513627 445.584906 615.773585 334.188679 527.756813 222.792453 615.773585"></polygon>
                        <polygon id="Path" stroke="#FF721B" points="222.792453 298.431866 334.188679 210.415094 445.584906 298.431866 445.584906 350.691824 334.188679 262.675052 222.792453 350.691824"></polygon>
                    </g>
                </g>
            </g>
        </g>
    </g>
</svg>