<svg xmlns="http://www.w3.org/2000/svg" width="384" height="326" viewBox="0 0 384 326">
    <defs>
        <linearGradient id="a" x1="68.446%" x2="21.026%" y1="34.585%" y2="79.629%">
            <stop offset="0%" stop-color="#FFD8A1"/>
            <stop offset="100%" stop-color="#FFF"/>
        </linearGradient>
        <linearGradient id="b" x1="31.566%" x2="78.973%" y1="34.631%" y2="79.633%">
            <stop offset="0%" stop-color="#86A488"/>
            <stop offset="47.58%" stop-color="#C8D6C9"/>
            <stop offset="100%" stop-color="#FFF"/>
        </linearGradient>
        <linearGradient id="c" x1="31.566%" x2="78.973%" y1="35.939%" y2="77.111%">
            <stop offset="0%" stop-color="#86A488"/>
            <stop offset="47.58%" stop-color="#C8D6C9"/>
            <stop offset="77%" stop-color="#FAFCFF"/>
            <stop offset="100%" stop-color="#FFF"/>
        </linearGradient>
    </defs>
    <g fill="none" fill-rule="nonzero">
        <g fill="#C4ECFE" opacity=".3">
            <path d="M382.335 1.332v322.96H1.665V1.331h380.67zM383.556.11H.444v325.457h383.112V.11z"/>
            <path d="M.444 230.788h383.112v1.165H.444zM.444 184.231h383.112v1.165H.444z"/>
            <path d="M.444 230.788h383.112v1.165H.444zM.444 277.4h383.112v1.166H.444zM.444 137.618h383.112v1.165H.444zM.444 91.006h383.112v1.165H.444zM.444 44.393h383.112v1.165H.444z"/>
        </g>
        <circle cx="153.489" cy="198.215" r="1.665" fill="#BFD9FF"/>
        <circle cx="344.435" cy="153.434" r="1.665" fill="#BFD9FF"/>
        <circle cx="277.845" cy="16.148" r="1.665" fill="#BFD9FF"/>
        <circle cx="369.406" cy="61.817" r="1.665" fill="#BFD9FF"/>
        <circle cx="27.857" cy="33.683" r="1.665" fill="#BFD9FF"/>
        <circle cx="94.724" cy="170.414" r="1.498" fill="#BFD9FF"/>
        <path fill="#EAEAEA" d="M137.286 325.623h-17.258l4.495-224.85.277-10.489h7.713l.278 10.71z"/>
        <path fill="#D7D7D7" d="M132.79 100.994c-2.718.666-5.604.61-8.212-.222l.277-10.488h7.658l.278 10.71z"/>
        <path fill="#EAEAEA" d="M130.96 81.24L106.266 17.09a1.23 1.23 0 0 0-1.554-.666c-.5.222-.777.722-.721 1.221l5.05 49.443 18.977 17.147 2.942-2.997zM132.236 89.951l67.977 9.711c.666.056 1.22-.444 1.332-1.11.055-.499-.222-.998-.722-1.22l-45.614-19.7-24.25 8.213 1.277 4.106zM123.968 86.788l-41.674 54.604c-.389.555-.222 1.276.277 1.665.444.333.999.277 1.443-.056l39.454-30.187 4.661-25.193-4.161-.833z"/>
        <circle cx="129.017" cy="85.956" r="7.214" fill="#FFF"/>
        <path fill="#707479" d="M129.017 93.78c-4.272 0-7.768-3.496-7.768-7.768 0-4.273 3.496-7.77 7.768-7.77 4.273 0 7.77 3.497 7.77 7.77.055 4.272-3.441 7.768-7.77 7.768zm0-14.372c-3.607 0-6.603 2.997-6.603 6.604 0 3.606 2.996 6.603 6.603 6.603 3.607 0 6.604-2.997 6.604-6.603a6.584 6.584 0 0 0-6.604-6.604z"/>
        <path fill="#EAEAEA" d="M60.486 325.623h-12.93l3.385-191.722.222-7.825h5.66l.278 7.936z"/>
        <path fill="#D7D7D7" d="M57.1 134.012c-1.997.499-4.161.443-6.159-.167l.222-7.769h5.716l.222 7.936z"/>
        <path fill="#EAEAEA" d="M56.823 120.083l-.5-51.163c0-.5-.388-.888-.887-.943a.897.897 0 0 0-.888.777l-9.378 35.792 8.768 16.925 2.885-1.388zM55.491 126.465l44.893 24.471c.444.222.943.056 1.22-.388.223-.388.112-.832-.221-1.11l-26.636-25.637-19.034-.61-.222 3.274zM50.553 122.136L7.269 149.383c-.444.222-.666.777-.388 1.22.222.444.777.666 1.22.389l35.349-10.82 9.822-16.37-2.72-1.666z"/>
        <circle cx="54.271" cy="122.858" r="5.327" fill="#FFF"/>
        <path fill="#707479" d="M54.27 128.795a5.944 5.944 0 0 1-5.937-5.937 5.944 5.944 0 0 1 5.938-5.938 5.944 5.944 0 0 1 5.937 5.938 5.944 5.944 0 0 1-5.937 5.937zm0-10.71a4.713 4.713 0 0 0-4.716 4.717 4.713 4.713 0 0 0 4.717 4.717 4.713 4.713 0 0 0 4.716-4.717 4.713 4.713 0 0 0-4.716-4.716z"/>
        <g fill="#A8BEAA">
            <path d="M366.02 203.875c-1.22 0-2.219-.999-2.219-2.22V155.82c0-1.221.999-2.22 2.22-2.22 1.22 0 2.22.999 2.22 2.22v45.835c0 1.221-1 2.22-2.22 2.22z"/>
            <path d="M366.02 172.356c-.11 0-.221 0-.388-.055-1.22-.222-1.997-1.332-1.83-2.553.998-5.993 6.325-10.155 12.318-9.656 1.221.056 2.109 1.166 2.053 2.387-.055 1.22-1.165 2.108-2.386 2.053-3.718-.278-7.047 2.275-7.602 5.993a2.16 2.16 0 0 1-2.164 1.831z"/>
            <path d="M366.02 172.356c-1.054 0-1.997-.777-2.163-1.831a7.12 7.12 0 0 0-7.603-5.993c-1.22.055-2.275-.777-2.386-2.053-.055-1.221.777-2.276 2.053-2.387 6.049-.443 11.32 3.718 12.32 9.656.221 1.22-.61 2.33-1.832 2.553-.166.055-.277.055-.388.055zM366.02 183.399c-.11 0-.221 0-.388-.056-1.22-.222-1.997-1.331-1.83-2.552.998-5.993 6.325-10.155 12.318-9.656 1.221.056 2.109 1.166 2.053 2.386-.055 1.221-1.165 2.11-2.386 2.054-3.718-.278-7.047 2.275-7.602 5.993a2.16 2.16 0 0 1-2.164 1.83z"/>
            <path d="M366.02 183.399c-1.054 0-1.997-.777-2.163-1.831a7.12 7.12 0 0 0-7.603-5.993c-1.22.055-2.275-.777-2.386-2.054-.055-1.22.777-2.275 2.053-2.386 6.049-.444 11.32 3.718 12.32 9.656.221 1.22-.61 2.33-1.832 2.552-.166.056-.277.056-.388.056z"/>
        </g>
        <path fill="url(#a)" d="M202.377 325.512c-30.742-1.998-40.73-43.949-58.599-60.54-17.924-16.593-56.601-4.718-64.98-49.888-5.605-30.187-30.743-31.519-51.718-42.617-11.431-6.049-25.193 2.22-25.193 15.205v137.951h200.49v-.11z"/>
        <path fill="url(#b)" d="M216.028 325.512c25.637-1.665 34.071-36.79 49.054-50.608 14.983-13.873 47.279-3.94 54.326-41.73 4.717-25.248 25.748-26.358 43.228-35.68 9.544-5.05 21.087 1.83 21.087 12.707v115.311H216.028z"/>
        <path fill="url(#c)" d="M284.726 325.512c28.134 0 27.246-42.617 51.662-48.277 9.767-2.275 15.094-9.49 19.589-17.37 7.547-13.095 27.524-7.768 27.524 7.326v58.321h-98.775z"/>
        <path fill="#2B2B2B" d="M52.162 323.736h279.732v1.776H52.162z"/>
        <circle cx="213.142" cy="29.854" r="7.269" fill="#10182A"/>
        <circle cx="211.533" cy="41.618" r="7.269" fill="#10182A"/>
        <path fill="#BF9680" d="M223.52 109.54l44.115 18.257c5.327 2.275 7.713 8.49 5.382 13.706-2.108 4.717-7.325 7.27-12.263 5.882l-51.83-15.038c-3.44-.944-6.159-3.44-7.601-6.66l-.278-.665 22.474-15.482z"/>
        <path fill="#FEDFCC" d="M201.045 125.077L180.347 76.69c-2.83-6.825.5-14.65 7.325-17.424 6.659-2.72 14.316.333 17.257 6.88l18.59 43.395-22.474 15.537z"/>
        <path fill="#2B2B2B" d="M236.171 325.679l-47.944-.222a4.535 4.535 0 0 1-4.55-4.55l-.112-6.05 30.299.39 22.918 5.77c2.663.722 2.164 4.662-.61 4.662z"/>
        <path fill="#FEDFCC" d="M214.696 106.876c-1.387-15.593-11.986-13.928-8.823-24.749 3.163-10.82-2.83-25.082-14.816-24.028-9.212.777-9.878.666-13.762.833-26.525 1.276-19.09 20.587-20.754 52.106l58.155-4.162z"/>
        <path fill="#10182A" d="M170.636 120.805l10.321 90.34 2.553 104.99 30.02-.778c4.162-21.142 10.655-87.898 10.655-99.884 0-14.76-7.769-94.335-9.6-109.596l-43.95 14.928z"/>
        <path fill="#2B2B2B" d="M181.568 235.006l.5 22.03 30.075 12.985c2.83 1.22 6.16-.056 7.38-2.886.223-.555.39-1.11.445-1.72l1.997-20.254-40.397-10.155z"/>
        <path fill="#10182A" d="M156.541 111.094s-22.53 76.19-29.688 95.944c-4.55 12.486-29.854 90.728-29.688 90.84l28.412 10.543c1.165-1.887 16.37-26.803 20.088-34.682 18.367-38.9 33.184-78.631 43.671-120.416 2.276-9.046 4.773-18.257 6.104-27.469l-38.899-14.76z"/>
        <path fill="#2B2B2B" d="M155.098 115.866l-1.609 18.645c-.61 6.992 2.275 13.873 7.658 18.368l42.562 35.348 9.1-18.09-47.889-52.273-8.434-6.77-1.388 4.772z"/>
        <path fill="#FEDFCC" d="M156.541 111.094c.721 8.212 10.377 19.81 24.75 18.645l11.541-1.277c13.096-1.054 22.585-13.595 21.753-22.474l-58.044 5.106z"/>
        <path fill="#2B2B2B" d="M193.11 58.044s5.438.11 8.213 3.718l-9.212 5.16.999-8.878z"/>
        <path fill="#BF9680" d="M187.394 67.866l-14.04-4.606 6.271-21.031 17.258-.61-3.163 21.308c.222 2.664-1.775 4.994-4.44 5.16-.665 0-1.275 0-1.886-.221z"/>
        <path fill="#2B2B2B" d="M195.052 53.605l-8.38-2.83 6.993 12.041zM143.5 325.18l-45.28-15.816c-2.386-.832-3.663-3.385-2.886-5.77l1.831-5.772 28.523 10.266 19.81 12.874c2.33 1.554.555 5.105-1.997 4.217zM178.96 190.668c-.056 0-.111 0-.167-.055-.333-.056-.5-.444-.388-.777l7.435-25.36c.056-.333.444-.5.777-.388.333.055.5.444.389.777l-7.436 25.36c-.111.277-.388.443-.61.443zM181.512 229.068a.6.6 0 0 1-.388-.166c-.222-.222-.278-.61-.056-.833l3.94-4.66c.222-.223.61-.278.832-.056.222.222.278.61.056.832l-3.94 4.661c-.055.167-.277.222-.444.222z"/>
        <path fill="#BF9680" d="M217.692 29.743c0 1.832-.332 3.663-.943 5.439l-.943 2.719-1.221 3.385-2.83 7.99c-2.109 5.993-8.712 9.1-14.705 6.937l-10.21-3.663a10.158 10.158 0 0 1-6.16-12.985l5.493-15.37c2.997-8.435 12.32-12.875 20.754-9.823a16.383 16.383 0 0 1 10.765 15.371z"/>
        <path fill="#2B2B2B" d="M215.75 37.956l-1.22 3.385c-.5-.333-.888-.888-.888-1.554 0-.999.776-1.83 1.83-1.83h.278zM209.59 43.672c-.221 0-.388-.111-.499-.333-.166-.278-.055-.666.222-.777l1.998-1.11c.222-.055.333-.222.388-.388.056-.167.056-.333.056-.5l-1.387-2.608c-.167-.277-.056-.666.222-.777.277-.166.665-.055.776.222l1.443 2.72c.167.499.167.943-.055 1.387-.222.443-.555.776-1.055.943h-.055l-1.831.999c0 .166-.167.222-.222.222zM208.87 48.61c-.223 0-.39-.055-.611-.055-1.887-.444-2.83-2.664-2.886-2.83-.11-.333 0-.666.333-.777.333-.111.666 0 .777.333.222.5 1 1.831 2.053 2.109.61.166 1.332-.111 2.054-.777.222-.222.665-.222.832.055.166.278.222.666-.056.833-.832.776-1.664 1.11-2.497 1.11z"/>
        <circle cx="205.595" cy="36.291" r="1.831" fill="#2B2B2B"/>
        <circle cx="184.065" cy="27.191" r="7.269" fill="#10182A"/>
        <circle cx="179.219" cy="35.689" r="7.269" fill="#10182A" transform="rotate(-80.782 179.219 35.69)"/>
        <path fill="#10182A" d="M218.802 29.854c-.888 1-4.162 5.827-8.767-2.663-1.277-2.386-3.33-2.109-5.161-3.718-.888-.777-2.22-.722-2.997.166l-.332.5-3.552 7.27c-.666 1.275-1.942 2.163-3.385 2.274l-3.551.222-4.273 6.548a6.562 6.562 0 0 1-7.935 2.553s5.438-14.317 7.88-20.477c2.496-6.215 10.487-11.43 20.198-8.101 9.711 3.274 11.875 15.426 11.875 15.426z"/>
        <circle cx="204.153" cy="22.751" r="7.658" fill="#10182A"/>
        <path fill="#BF9680" d="M189.891 36.735l-.388-.166c-1.498-.555-2.33-2.275-1.776-3.83l1.221-3.329c.555-1.498 2.275-2.33 3.829-1.775l.388.166c1.499.555 2.331 2.275 1.776 3.83l-1.22 3.329c-.611 1.553-2.276 2.33-3.83 1.775z"/>
        <path fill="#ABB8C5" d="M205.096 176.296l44.06 20.42-24.028 51.83a10.67 10.67 0 0 1-14.205 5.216l-24.639-11.376a10.67 10.67 0 0 1-5.216-14.206l24.028-51.884z"/>
        <path fill="#ABB8C5" d="M242.053 212.032l-44.06-20.42 8.49-18.257c5.605-12.153 20.088-17.48 32.24-11.82 12.153 5.605 17.48 20.088 11.82 32.24l-8.49 18.257zm-33.406-24.305l29.466 13.651 5.105-10.987c3.94-8.046.666-17.813-7.435-21.753-8.047-3.94-17.813-.666-21.753 7.436l-.333.666-5.05 10.987zM273.128 223.575l2.109-4.55-46.169 11.597-5.937 20.31z"/>
        <path fill="#ABB8C5" d="M288.666 232.73l-15.538-9.155-1.165-3.496 6.992-16.592z"/>
        <path fill="#2B2B2B" d="M269.355 220.467l-.167 5.272 3.94-2.164-1.054-3.774zM216.472 181.512l21.42 9.933a4.436 4.436 0 0 1 2.163 5.938 4.436 4.436 0 0 1-5.937 2.164l-21.42-9.933a4.436 4.436 0 0 1-2.164-5.938c.999-2.22 3.663-3.163 5.938-2.164z"/>
        <path fill="#FEDFCC" d="M185.452 68.865c-.943.333-1.942.444-2.997.444-5.05 0-8.99-3.44-10.376-7.991-.389 0-.777 0-1.221.055-8.823.5-15.593 8.102-15.094 16.98l3.108 53.106 31.685-8.102-2.774-46.834c-.056-2.775-.944-5.383-2.331-7.658z"/>
        <path fill="#BF9680" d="M190.613 123.246l36.957 35.515c4.994 4.772 5.16 12.707.388 17.701-4.383 4.55-11.486 5.161-16.536 1.332l-46.835-35.126a14.057 14.057 0 0 1-5.604-10.321l-.056-.944 31.686-8.157z"/>
        <path fill="#C99C9C" d="M186.84 20.42S191.833.61 196.272.5c4.44-.112 4.883 4.716 7.491 4.938 2.553.222 3.718-4.828 8.435-3.718 4.717 1.11 5.05 20.92 5.05 20.92l-30.41-2.22z"/>
        <path fill="#413232" d="M188.56 14.594l28.411 2.053.333 5.993-30.465-2.22z"/>
        <path fill="#C99C9C" d="M234.395 24.527l-63.648-4.55c-.389-.056-.666-.389-.61-.722.055-.332.388-.665.72-.61l63.594 4.55c.388.056.666.389.61.722-.055.333-.333.61-.666.61z"/>
        <path fill="#2B2B2B" d="M189.78 109.318c-.333 0-.555-.222-.61-.555l-1.387-23.25a.66.66 0 0 1 .555-.667.66.66 0 0 1 .665.555l1.388 23.251c0 .333-.222.61-.61.666zM214.585 106.543a.604.604 0 0 1-.61-.5c-.777-6.88-3.44-9.988-5.827-12.818-2.497-2.94-4.606-5.438-2.886-11.264.056-.333.444-.5.777-.389.333.056.5.444.389.777-1.499 5.16.222 7.27 2.663 10.1 2.331 2.774 5.217 6.215 6.049 13.428.055.333-.167.666-.555.666.055 0 0 0 0 0z"/>
        <path fill="#FFF" d="M289.332 283.616a4.831 4.831 0 0 1-4.828 4.828 4.831 4.831 0 0 1-4.828-4.828c0-2.663 4.828-13.373 4.828-13.373s4.828 10.71 4.828 13.373zM311.473 290.83c-.056 1.498-1.332 2.664-2.83 2.664a2.779 2.779 0 0 1-2.664-2.664c0-1.498 2.72-7.602 2.72-7.602s2.774 6.104 2.774 7.602zM295.713 299.487c-.055 1.498-1.331 2.663-2.83 2.663a2.779 2.779 0 0 1-2.663-2.663c0-1.499 2.719-7.603 2.719-7.603s2.774 6.104 2.774 7.603z"/>
        <circle cx="299.154" cy="95.834" r="54.77" fill="#86A488"/>
        <path fill="#2B2B2B" d="M299.154 325.457a.616.616 0 0 1-.61-.61V130.57c0-.333.277-.61.61-.61.333 0 .61.277.61.61v194.275c-.055.333-.277.61-.61.61z"/>
        <path fill="#2B2B2B" d="M289.998 324.846c0-5.05 4.106-9.1 9.156-9.1 4.994 0 9.1 4.106 9.1 9.1h-18.256z"/>
        <path fill="#2B2B2B" d="M303.038 324.846a6.761 6.761 0 0 1 6.77-6.77 6.726 6.726 0 0 1 6.77 6.77h-13.54zM282.95 324.846a6.761 6.761 0 0 1 6.77-6.77 6.726 6.726 0 0 1 6.77 6.77h-13.54zM299.154 201.933a.63.63 0 0 1-.444-.167.603.603 0 0 1 0-.832l22.585-22.585a.603.603 0 0 1 .832 0 .603.603 0 0 1 0 .833l-22.585 22.584a.6.6 0 0 1-.388.167zM299.154 176.573a.63.63 0 0 1-.444-.166l-16.204-16.204a.603.603 0 0 1 0-.832.603.603 0 0 1 .833 0l16.203 16.204a.603.603 0 0 1 0 .832c-.11.055-.277.166-.388.166z"/>
        <circle cx="321.739" cy="116.754" r="3.607" fill="#C8D6C9"/>
        <circle cx="316.689" cy="134.178" r="3.607" fill="#C8D6C9"/>
        <circle cx="291.052" cy="85.401" r="3.607" fill="#C8D6C9"/>
        <circle cx="291.995" cy="121.471" r="3.607" fill="#C8D6C9"/>
        <circle cx="282.95" cy="102.326" r="3.607" fill="#C8D6C9"/>
        <circle cx="338.053" cy="114.701" r="3.607" fill="#C8D6C9"/>
        <circle cx="311.528" cy="89.064" r="3.607" fill="#C8D6C9"/>
        <circle cx="265.138" cy="114.701" r="3.607" fill="#C8D6C9"/>
        <path fill="#A8BEAA" d="M339.554 218.414c-1.22 0-2.22-.999-2.22-2.22v-45.836c0-1.22 1-2.22 2.22-2.22 1.22 0 2.22 1 2.22 2.22v45.836c0 1.277-1.055 2.22-2.22 2.22z"/>
        <path fill="#A8BEAA" d="M339.554 186.84c-.11 0-.222 0-.388-.056-1.221-.222-1.998-1.332-1.832-2.553 1-5.993 6.326-10.155 12.32-9.655 1.22.055 2.108 1.165 2.053 2.386-.056 1.22-1.166 2.109-2.386 2.053-3.718-.277-7.048 2.275-7.603 5.993-.166 1.11-1.11 1.831-2.164 1.831z"/>
        <path fill="#A8BEAA" d="M339.554 186.84c-1.054 0-1.998-.778-2.164-1.832a7.12 7.12 0 0 0-7.602-5.993c-1.221.056-2.276-.777-2.387-2.053-.055-1.221.777-2.275 2.054-2.386a11.48 11.48 0 0 1 12.319 9.655c.222 1.221-.61 2.33-1.832 2.553-.166.055-.277.055-.388.055zM339.554 197.938c-.11 0-.222 0-.388-.056-1.221-.222-1.998-1.332-1.832-2.553 1-5.993 6.326-10.099 12.32-9.655 1.22.055 2.108 1.165 2.053 2.386-.056 1.22-1.166 2.109-2.386 2.053-3.718-.277-7.048 2.275-7.603 5.993-.166 1.055-1.11 1.832-2.164 1.832z"/>
        <path fill="#A8BEAA" d="M339.554 197.938c-1.054 0-1.998-.777-2.164-1.832a7.12 7.12 0 0 0-7.602-5.993c-1.221.056-2.276-.777-2.387-2.053-.055-1.22.777-2.275 2.054-2.386 6.048-.444 11.32 3.718 12.319 9.655.222 1.221-.61 2.331-1.832 2.553-.166.056-.277.056-.388.056z"/>
        <path fill="#FFE7C5" d="M93.17 251.265c-1.22 0-2.22-1-2.22-2.22V203.21c0-1.22 1-2.22 2.22-2.22 1.22 0 2.22 1 2.22 2.22v45.836c0 1.22-.944 2.22-2.22 2.22z"/>
        <path fill="#FFE7C5" d="M93.17 219.746c-.111 0-.222 0-.388-.056-1.221-.222-1.998-1.332-1.832-2.552 1-5.993 6.326-10.1 12.32-9.656 1.22.056 2.108 1.165 2.053 2.386-.056 1.221-1.166 2.109-2.387 2.053-3.718-.277-7.047 2.276-7.602 5.993a2.21 2.21 0 0 1-2.164 1.832z"/>
        <path fill="#FFE7C5" d="M93.17 219.746c-1.054 0-1.998-.777-2.164-1.832a7.12 7.12 0 0 0-7.603-5.993c-1.22.056-2.275-.776-2.386-2.053-.055-1.22.777-2.275 2.054-2.386 6.048-.444 11.32 3.718 12.319 9.656.222 1.22-.61 2.33-1.832 2.552-.11 0-.277.056-.388.056zM93.17 230.788c-.111 0-.222 0-.388-.055-1.221-.222-1.998-1.332-1.832-2.553 1-5.993 6.326-10.1 12.32-9.655 1.22.055 2.108 1.165 2.053 2.386-.056 1.22-1.166 2.109-2.387 2.053-3.718-.277-7.047 2.275-7.602 5.993a2.16 2.16 0 0 1-2.164 1.831z"/>
        <path fill="#FFE7C5" d="M93.17 230.788c-1.054 0-1.998-.776-2.164-1.83a7.12 7.12 0 0 0-7.603-5.994c-1.22.056-2.275-.777-2.386-2.053-.055-1.22.777-2.275 2.054-2.386 6.048-.444 11.375 3.718 12.319 9.655.222 1.221-.61 2.331-1.832 2.553-.11.055-.277.055-.388.055z"/>
    </g>
</svg>
