<svg xmlns="http://www.w3.org/2000/svg" width="24" height="15" viewBox="0 0 24 15">
    <path fill="#868686" fill-rule="nonzero" d="M23.59 6.035c.55.647.544 1.458 0 2.111-.564.677-1.393 1.489-2.529 2.398-2.266 1.814-4.495 2.954-6.7 3.43a11.19 11.19 0 0 1-2.345.233c-.821 0-1.619-.07-2.386-.234-2.178-.472-4.403-1.62-6.673-3.429-1.067-.85-1.918-1.64-2.555-2.398-.536-.637-.536-1.474 0-2.111.232-.276.493-.55.795-.847 1.562-1.54 3.21-2.784 4.966-3.69C7.443.84 8.714.399 9.956.17 10.696.033 11.39 0 12.016 0c.6 0 1.28.037 2.02.17 1.228.219 2.498.66 3.793 1.329 1.808.934 3.443 2.188 4.966 3.689.263.259.536.543.795.847zm-1.095 1.173c.065-.065.07-.147 0-.235-.139-.173-.378-.43-.717-.769-1.473-1.473-3-2.588-4.588-3.389-1.228-.62-2.359-1.032-3.389-1.212a10.298 10.298 0 0 0-3.584 0c-1.016.173-2.144.587-3.389 1.212-1.558.782-3.102 1.903-4.614 3.39a8.906 8.906 0 0 1-.352.377c-.16.166-.274.3-.339.391-.091.091-.091.17 0 .235.56.69 1.335 1.43 2.32 2.216 2.09 1.665 4.13 2.706 6.113 3.129a9.73 9.73 0 0 0 2.02.208h.04c.625 0 1.305-.056 2.046-.208 2.01-.42 4.03-1.487 6.087-3.13.98-.782 1.772-1.511 2.346-2.215zm-10.48-4.692c1.265 0 2.33.446 3.22 1.342.896.903 1.343 1.981 1.343 3.245 0 1.265-.444 2.334-1.343 3.233-.886.886-1.955 1.33-3.22 1.33-1.264 0-2.362-.44-3.258-1.33-.903-.896-1.343-1.968-1.343-3.233 0-1.264.444-2.346 1.343-3.245.9-.9 1.994-1.342 3.259-1.342zm2.203 6.803a3.021 3.021 0 0 0 .913-2.216c0-.873-.303-1.6-.913-2.215-.603-.61-1.33-.926-2.202-.926-.874 0-1.617.313-2.23.926-.612.612-.925 1.342-.925 2.215 0 .848.313 1.59.926 2.203a3.041 3.041 0 0 0 2.229.926c.86 0 1.59-.3 2.202-.913z"/>
</svg>
