<svg xmlns="http://www.w3.org/2000/svg" width="791" height="644" viewBox="0 0 791 644">
    <g fill="none" opacity=".06" transform="translate(2 2)">
        <circle cx="548.378" cy="548.378" r="548.378" stroke="#FFF" stroke-width="3" opacity=".343"/>
        <path fill="#FFF" d="M247.38 235.642l-1.097-2.231c9.164-1.373 9.782-7.827 16.75-10.195 7.93-2.609 5.218.24 13.01 0 6.315-.275 10.16 4.325 17.368.961-1.75 3.09-4.6 5.218-7.449 7.311-5.938 4.222-12.013 8.547-19.084 10.195-7.071 1.613-15.378-.103-19.497-6.041z"/>
        <path fill="#FFF" d="M357.084 724.431c-.137 4.84-2.986 9.062-5.458 13.146-11.018 17.987-17.712 38.822-19.188 59.932-1.476 20.218-.583 45.138-18.192 55.092-10.057 5.595-24.199 4.6-30.892 14.039-2.094 2.849-3.09 6.453-4.085 9.817-4.325 15.755-8.684 31.51-13.01 47.265-5.594-.48-11.292-1.098-16.853-1.716 6.59 2.094 11.156 11.019 7.208 17.128-6.315-3.33-14.622.618-18.123 6.968-3.33 6.316-2.85 14.005-.996 20.973 5.733 20.595 23.341 37.208 44.074 42.151-3.604 6.83-14.623 3.845-21.35-.72-48.021-32.472-84.269-81.935-100.813-137.507-5.836-19.6-9.577-40.435-21.007-57.288-9.543-14.245-23.96-24.68-33.502-38.925-13.386-20.458-15.892-46.991-31.407-65.698-8.684-10.675-22.105-23.788-14.417-35.218 3.09-4.702 9.68-9.165 7.071-14.142-.858-1.613-2.608-2.609-3.981-3.982-5.218-5.595-1.614-14.382.995-21.59 4.325-12.529 4.325-25.915 2.472-39.302-13.044-11.67-23.341-26.156-29.795-42.426-3.844-9.92-8.958-22.311-19.6-22.449-2.745-7.688-5.594-15.377-8.34-23.066-.996 2.746-3.707 4.462-6.694 4.84C9.44 386.089 60.103 272.06 138.948 183.708c1.75-.755 3.467-1.75 5.217-2.746 18.708-10.916 33.605-27.289 51.694-39.2 3.707-2.47 7.929-4.84 12.529-4.359 4.462.378 8.684 4.943 7.07 9.165-.617 1.75-2.093 3.124-3.604 4.222-21.178 18.02-44.382 33.776-69.062 46.82-2.952 1.476-6.075 3.226-7.414 6.212-2.506 5.08 1.716 11.396 7.071 13.25 5.32 1.853 11.293.755 16.75-.48-4.599 6.555-5.972 15.377-3.603 23.066 5.08.48 6.693-6.453 8.203-11.293 6.179-19.222 36.831-27.048 34.84-47.3 8.307 4.325 16.75-5.355 21.831-13.284 5.08-8.066 16.373-15.995 22.586-8.924.343 3.947.824 7.929 1.201 11.91 10.916-2.746 21.968-5.595 32.884-8.34-6.213 4.359-8.307 13.66-4.737 20.354 3.604 6.693 12.529 10.057 19.6 7.311-.103 5.836-5.32 10.298-10.058 13.765-12.014 9.062-24.92 18.364-38.924 22.826l3.226 6.693c-.343.138-.72.275-1.098.275-8.925.858-18.364-5.56-27.907-4.325-5.835.755-13.009.755-16.373 6.693-.48.755-2.574 11.156-1.098 10.298 5.217-2.986 10.4-5.973 15.515-8.925 1.579 4.222 1.956 8.925 1.098 13.524 6.316-.617 12.907.721 18.502 4.085-5.836 13.524-20.836 22.586-35.596 21.453-.137-4.462-.377-8.924-.514-13.387-12.151-.995-22.071 9.44-28.147 19.875-6.179 10.538-10.881 22.586-21.076 29.279-6.178 4.222-13.764 5.835-20.457 9.302-6.556 3.604-12.632 10.435-11.259 17.746.618 3.467 2.849 6.694 2.746 10.298-.378 6.693-8.17 9.817-13.387 14.142-8.924 7.448-11.155 21.11-20.698 27.666-6.933 4.84-16.133 4.737-24.199 7.208-8.066 2.471-16.133 10.538-12.872 18.364-3.982 1.373-8.821-1.613-9.199-5.835-14.245 28.043-23.65 58.558-27.494 89.828 7.07 4.943 14.245-6.35 15.618-14.897 1.476-8.547 8.924-19.737 15.858-14.657-1.614 12.289-3.227 24.44-4.806 36.728-.377 2.369-.618 4.84.515 6.934 1.373 2.609 4.325 3.707 6.59 5.56 6.316 5.458 5.458 15.138 5.836 23.445.377 10.16 3.741 20.08 9.062 28.764-.515-1.75-.859-3.467-1.236-5.217 9.68 1.235 19.737-1.888 27.048-8.341 3.844-3.467 7.071-7.93 11.91-9.68 4.978-1.854 10.436-.515 15.516.858 15.755 4.325 32.506 9.165 43.043 21.556 5.32 6.316 8.685 14.28 15.035 19.463 14.382 12.15 38.719 6.796 51.865 20.32 10.538 10.915 8.581 28.524 5.732 43.524-7.208-3.947-16.853 5.973-12.631 13.044 3.844-4.222 8.306-8.684 13.901-8.684 5.698-.138 10.675 7.688 6.453 11.292 9.92-12.665 34.223-7.448 38.067 8.307 13.902.996 27.906 1.957 41.808 3.09-2.677 20.389 40.023 21.59 39.165 42.082zM272.541 150.55c-5.355 2.643-12.734-.343-14.725-5.973-2.025-5.629 1.785-12.597 7.62-13.936 3.673-.858 8.787-.446 9.92-4.05.343-1.098.137-2.3.137-3.433-.137-6.796 5.938-12.425 12.494-14.142 6.557-1.681 13.49-.377 20.15.927 2.368 4.909 3.054 10.607 1.922 15.927-4.566.206-9.131.378-13.696.584.412 7.585-.343 17.128-7.38 19.943-6.316 2.505-14.554-2.163-19.806 2.093M343.628 74.794c12.46-5.972 22.998-15.377 35.287-21.693 21.144-10.847 45.824-11.808 69.577-12.563l162.186-5.046c-12.529 6.865-25.058 13.765-37.62 20.63-10.23 5.629-21.866 11.395-33.09 8.203-.24 9.028 7.963 17.403 17.025 17.334-22.208 13.73-53.032-.309-76.476 11.225-9.817 4.84-17.746 13.97-28.559 15.686-6.247.996-12.734-.686-18.947.687-10.4 2.265-16.957 12.117-24.645 19.462-8.856 8.478-21.866 14.28-33.433 10.229-11.568-4.05-17.609-21.247-8.341-29.28 4.565-3.947 11.087-4.599 16.476-7.38 5.389-2.745 9.645-10.125 5.595-14.622-1.75-1.956-4.634-2.711-6.247-4.805-1.75-2.266-1.58-5.492-3.02-7.964-5.493-9.645-20.767 3.33-31.168-.549M507.805 120.412c7.312-1.682 13.662-6.006 20.492-9.164 6.831-3.158 14.966-5.012 21.66-1.682 1.99 4.977-3.742 9.508-8.788 11.293-9.68 3.398-20.183 4.325-30.309 2.643M949.81 174.955c-1.991.24-4.085.137-6.213-.378-9.302-1.99-16.373-9.164-24.337-14.382-18.364-12.15-43.421-13.73-63.261-3.81 4.703-6.83 7.071-15.275 6.556-23.581l-2.849.995C827.2 114.955 789.1 95.39 753.642 108.055c-8.204 2.987-15.618 7.449-23.925 10.298-8.822 3.09-18.604 4.36-26.156 9.817-7.688 5.458-11.773 17.506-5.183 24.062 5.595 5.595 14.52 4.084 22.346 4.84 7.689.755 16.51 8.41 12.288 15-33.982 15.892-68.066 31.922-102.048 47.952 15.618 5.08 25.95 22.792 22.586 38.924-11.43 1.991-22.449-4.942-33.982-5.698-16.75-.858-32.746 13.902-33.09 30.653-.48 16.75 14.898 32.231 31.648 31.99 12.529-.137 24.817-7.688 36.968-4.496.48-11.43 8.307-21.11 16.339-29.28 15.618-15.651 37.93-29.793 58.799-22.104 6.83 2.47 12.666 7.07 18.364 11.636 12.528 9.92 25.057 19.943 37.62 30 3.982-4.085 7.93-8.204 11.91-12.151 6.832 7.208 13.662 14.382 20.596 21.693 3.467-2.368 7.071-4.6 10.538-6.968 2.471 6.453 5.08 12.77 7.586 19.222.995-7.07 1.853-14.004 2.711-20.972 8.204.24 16.888.48 24.302-3.227 7.449-3.604 12.907-12.529 9.783-20.217-1.613-4.085-5.458-7.312-6.213-11.67-1.613-8.685 10.778-14.623 18.845-10.676 7.929 3.844 11.91 12.906 15.274 21.213 1.854-8.444 3.57-16.75 5.458-25.195 7.758 20.39 18.948 39.474 32.85 56.225-25.436-4.84-52.244-2.06-76.03 7.723 7.585 10.675 20.594 16.99 33.638 16.476 5.835-.137 12.288-1.476 16.75 2.231 3.364 2.85 4.222 7.449 4.84 11.67 1.991 11.911 3.982 23.685 5.835 35.458-13.42-11.018-32.746-9.782-50.251-10.125-17.506-.481-37.964-5.32-44.417-21.557-6.934 7.827-10.023 18.982-8.032 29.417-18.124-4.325-38.96-11.259-44.177-29.142-14.141 5.217-31.75-3.81-35.595-18.33-1.373-5.08-1.75-11.293-6.213-14.004-2.711-1.614-6.212-1.373-9.439-.996-26.91 3.124-53.719 6.11-80.492 9.234-14.623 1.75-29.76 3.5-42.666 10.675-12.907 7.07-23.17 20.973-21.694 35.63-24.68 14.656-45.618 35.869-59.76 60.823-4.462 7.69-8.306 16.51-6.556 25.195 1.236 6.693 5.698 12.391 7.071 18.982 2.369 11.293-4.085 22.208-6.796 33.364-7.69 31.75 16.407 61.648 38.753 85.675 10.538 11.156 22.723 23.307 38.1 23.925 9.543.377 18.605-3.845 27.53-7.346 25.537-10.057 53.34-14.657 80.732-13.558-6.213 4.84.24 15.377 7.963 16.99 7.69 1.614 15.996-.892 23.444 1.717 16.991 6.076 14.657 30.996 6.968 47.266 3.845-.756 7.827-1.51 11.774-2.232-2.094 5.458-4.222 10.916-6.316 16.236 23.307 2.952 32.128 33.605 26.705 56.534-5.32 22.963-18.947 44.039-19.325 67.62-.103 12.906 3.844 25.435 7.826 37.689 9.954 31.133 19.874 62.266 29.829 93.502 27.803 3.33 43.764-32.026 69.577-43.078 9.68-4.222 21.075-5.08 28.661-12.289 7.311-6.933 4.943-23.204-4.462-23.204 12.769-1.373 23.684-13.043 24.062-25.95.137-3.603-.378-7.208.103-10.777.858-5.08 4.084-9.543 7.174-13.902 19.702-28.284 32.471-60.687 45.24-92.678 3.33-8.581 6.693-16.99 10.023-25.572 12.632-31.888 25.16-63.639 37.792-95.527 4.943-12.528 9.92-24.92 14.863-37.483-6.831 11.293-24.68 9.817-34.875 1.373-10.297-8.41-15.652-21.213-23.718-31.75-6.831-9.062-16.03-17.094-19.257-28.147-1.853-6.316-1.51-13.146-2.608-19.737-2.506-14.28-11.911-26.156-18.364-39.062-6.453-12.906-9.817-29.622-.755-40.95 26.087 45.515 49.805 92.37 71.258 140.39 2.369-7.449 7.827-13.902 14.76-17.506 5.08-2.746 10.778-3.844 16.133-6.075 14.142-6.213 23.925-21.213 23.925-36.591-.138-15.378-9.92-30.378-24.2-36.453-7.07-2.986-15.137-3.948-21.83-8.067-6.694-3.947-11.534-13.009-7.312-19.6 3.948-6.212 13.524-6.075 20.08-2.608 6.591 3.604 11.43 9.68 17.61 13.764 4.462 2.987 9.679 4.943 14.519 7.69 26.19 15 32.643 49.118 38.135 78.878 2.986 15.996 6.35 31.888 10.332 47.506.137-3.364.107-6.83.107-10.16-.141-144.234-55.92-275.322-147.018-373.148zm50.217 180.207c-3.604-.24-6.934-2.609-9.817-4.84-4.702-3.707-9.44-8.067-10.812-13.902-1.614-6.933 1.716-14.897-1.991-21.075-1.75-2.987-4.84-4.84-7.449-6.934-6.83-5.458-11.807-13.284-13.661-21.694-1.613-7.448.72-17.368 8.307-18.604 3.604-.618 7.551 1.373 9.164 4.703l-5.08 2.746c8.547.995 12.529 13.901 5.973 19.462-.858.858-1.991 1.613-1.991 2.85 0 .754.48 1.475 1.133 1.99 5.32 5.835 13.284 7.93 20.217 11.636 6.934 3.604 13.765 10.298 12.666 17.987-2.231.858-4.325 1.613-6.556 2.47-2.368 2.37-.48 6.591 1.99 8.925 2.472 2.335 5.699 4.703 5.836 8.17 0 3.741-4.222 6.35-7.929 6.11z"/>
    </g>
</svg>
