<svg xmlns="http://www.w3.org/2000/svg" width="18" height="14" viewBox="0 0 18 14">
    <path fill="#FFF" fill-rule="nonzero" stroke="#FFF" stroke-width=".5" d="M9.273 10.328a.33.33 0 0 1-.176-.092l-2-2a.334.334 0 0 1 .472-.471L9 9.196v-.53C9 4.44 12.44 1 16.667 1a.333.333 0 0 1 0 .667c-3.86 0-7 3.14-7 7v.528l1.43-1.43a.334.334 0 0 1 .471.471l-1.987 1.986a.332.332 0 0 1-.307.106zM14 13H2.667C1.747 13 1 12.253 1 11.333V2.667C1 1.747 1.747 1 2.667 1H12a.333.333 0 0 1 0 .667H2.667c-.552 0-1 .448-1 1v8.666c0 .552.448 1 1 1H14c.551 0 1-.448 1-1v-8a.333.333 0 0 1 .667 0v8c0 .92-.748 1.667-1.667 1.667z"/>
</svg>
