<svg xmlns="http://www.w3.org/2000/svg" width="384" height="326" viewBox="0 0 384 326">
    <defs>
        <linearGradient id="a" x1="50%" x2="50%" y1="5.462%" y2="96.337%">
            <stop offset=".42%" stop-color="#FFD8A1"/>
            <stop offset="99.58%" stop-color="#FFF"/>
        </linearGradient>
        <linearGradient id="b" x1="50%" x2="50%" y1="-26.27%" y2="95.092%">
            <stop offset=".42%" stop-color="#FFD8A1"/>
            <stop offset="99.58%" stop-color="#FFF"/>
        </linearGradient>
        <linearGradient id="c" x1="50%" x2="50%" y1="6.972%" y2="98.376%">
            <stop offset=".42%" stop-color="#FFD8A1"/>
            <stop offset="99.58%" stop-color="#FFF"/>
        </linearGradient>
        <linearGradient id="d" x1="39.431%" x2="63.069%" y1="-26.425%" y2="143.086%">
            <stop offset=".42%" stop-color="#FFD8A1"/>
            <stop offset="99.58%" stop-color="#FFF"/>
        </linearGradient>
    </defs>
    <g fill="none" fill-rule="nonzero">
        <g fill="#C4ECFE" opacity=".3">
            <path d="M382.594 1.486v323.066H1.848V1.486h380.746zM383.84.241H.603v325.556h383.236V.241z"/>
            <path d="M.602 231.043H383.84v1.165H.602zM.602 184.409H383.84v1.165H.602z"/>
            <path d="M.602 231.043H383.84v1.165H.602zM.602 277.637H383.84v1.165H.602zM.602 137.814H383.84v1.165H.602zM.602 91.18H383.84v1.165H.602zM.602 44.586H383.84v1.165H.602z"/>
        </g>
        <path fill="#FDE545" d="M129.018 12.01l.16.402a6.09 6.09 0 0 0 3.455 3.454l.401.16c.442.161.442.804 0 .965l-.401.16a6.09 6.09 0 0 0-3.455 3.455l-.16.402c-.161.441-.804.441-.964 0l-.161-.402a6.09 6.09 0 0 0-3.455-3.455l-.401-.16c-.442-.16-.442-.804 0-.964l.401-.16a6.09 6.09 0 0 0 3.455-3.455l.16-.402c.201-.442.804-.442.965 0zM320.777 56.756l.16.402a6.09 6.09 0 0 0 3.455 3.455l.401.16c.442.16.442.804 0 .964l-.401.16a6.09 6.09 0 0 0-3.455 3.455l-.16.402c-.161.442-.804.442-.964 0l-.161-.402a6.09 6.09 0 0 0-3.455-3.454l-.401-.16c-.442-.161-.442-.804 0-.965l.401-.16a6.09 6.09 0 0 0 3.455-3.455l.16-.402c.161-.441.804-.441.965 0z"/>
        <path fill="#FFEEDA" d="M1.165 149.262L0 145.406c19.08-5.744 33.259-23.538 45.75-39.284C56.597 92.465 65.996 80.696 76.64 79.09c9.68-1.446 18.316 2.932 24.943 12.612 4.82 7.07 6.869 14.46 6.99 14.782l-3.857 1.044c0-.08-1.968-7.11-6.467-13.617-5.744-8.395-12.813-12.01-20.967-10.805-9.078 1.326-17.995 12.573-28.318 25.547-12.894 16.147-27.515 34.503-47.8 40.609z"/>
        <path fill="url(#a)" d="M361.546 325.797c-20.887-29.603-27.836-17.753-39.082-31.852-11.247-14.099-37.477-17.754-24.904 0 12.572 17.754 23.578 31.852 23.578 31.852h40.408z"/>
        <path fill="url(#b)" d="M77.603 325.797c-11.89-16.87-15.826-10.122-22.252-18.115-6.427-7.993-21.33-10.122-14.18 0 7.15 10.122 13.416 18.115 13.416 18.115h23.016z"/>
        <path fill="#2B2B2B" d="M48.442 323.749H304.71v1.647H48.442z"/>
        <path fill="#FDE545" d="M305.192 253.336l.16.401a6.09 6.09 0 0 0 3.455 3.455l.401.16c.442.161.442.804 0 .964l-.401.161a6.09 6.09 0 0 0-3.455 3.454l-.16.402c-.161.442-.804.442-.964 0l-.161-.402a6.09 6.09 0 0 0-3.454-3.454l-.402-.16c-.442-.161-.442-.804 0-.965l.402-.16a6.09 6.09 0 0 0 3.454-3.455l.16-.401c.201-.442.804-.442.965 0z"/>
        <path fill="#FEDFCC" d="M217.426 61.496l37.918 48.563-3.173-3.053 45.63 38.159c4.74 3.936 5.342 11.006 1.406 15.745-3.615 4.298-9.761 5.222-14.42 2.37l-50.692-31.09c-1.004-.642-1.887-1.405-2.57-2.289l-.563-.723-37.918-48.562c-5.262-6.748-4.057-16.429 2.651-21.69 6.749-5.383 16.469-4.178 21.73 2.57z"/>
        <path fill="#10182A" d="M218.631 107.006l.843 1.285.804 1.286 1.647 2.57 3.133 5.182c1.044 1.727 2.048 3.494 3.093 5.222l3.012 5.262a642.532 642.532 0 0 1 11.368 21.409c3.655 7.19 7.15 14.5 10.604 21.81a845.848 845.848 0 0 1 9.921 22.173l1.446 3.334.12.482c2.009 9.118 3.977 18.236 5.785 27.394l1.365 6.869 1.286 6.908c.883 4.58 1.687 9.199 2.49 13.818 1.567 9.239 3.053 18.477 4.378 27.796 1.246 9.319 2.49 18.678 3.254 28.157l-28.6 9.72-32.053-108.09 1.567 3.856-44.666-86.078 39.203-20.365z"/>
        <path fill="#707479" d="M307.562 300.09l-43.3 24.703c-2.25 1.286-5.142.522-6.508-1.687l-3.254-5.382 27.515-15.344 23.659-6.708c2.811-.803 4.378 3.013 1.888 4.418z"/>
        <path fill="#10182A" d="M209.352 123.675c-.964 8.636-2.45 17.192-4.057 25.667a605.565 605.565 0 0 1-5.503 25.346c-1.044 4.217-2.048 8.395-3.133 12.572-.562 2.089-1.084 4.178-1.646 6.266l-1.728 6.266-.843 3.134-.884 3.133-.884 3.133-.441 1.566-.241.763-.12.402-.041.2-.12.483-.121.522-.16.562c-.121.362-.242.723-.362 1.125-.241.723-.522 1.446-.804 2.17a36.016 36.016 0 0 1-2.048 4.136 35.218 35.218 0 0 1-2.57 3.816c-.242.322-.483.603-.724.884l-.361.442-.201.2c-.08.08-.12.161-.16.161l-.563.563-4.58 4.74c-12.21 12.37-24.622 24.542-37.435 36.391l-4.82 4.459-4.86 4.418c-1.607 1.486-3.254 2.932-4.901 4.378-1.607 1.446-3.294 2.892-4.94 4.338l-4.901 4.258c-.844.723-1.647 1.446-2.49 2.129l-2.53 2.129-5.062 4.217c-1.727 1.366-2.33 1.928-4.097 3.294L77 283.461 144 204.051l4.177-4.982.523-.602c.04-.04 0 0 0 0l-.04.08-.121.12c-.08.081-.16.202-.2.282-.282.361-.523.763-.764 1.165-.241.401-.402.843-.603 1.285-.08.201-.16.442-.24.643l-.081.321-.08.281 2.771-12.411 5.624-25.386 11.247-50.772 43.14 9.6z"/>
        <path fill="#707479" d="M113.915 325.074L74.189 294.99c-2.089-1.566-2.53-4.539-1.004-6.627l3.695-5.102 24.904 19.28 15.465 19.12c1.807 2.17-1.045 5.142-3.334 3.414z"/>
        <path fill="#2B2B2B" d="M169.305 104.475c-4.338 11.609 1.165 27.716 14.34 27.475 10.163-.16 10.886.24 15.143.16 13.537-.24 22.655-14.179 18.558-27.072l-48.04-.563z"/>
        <path fill="#FEDFCC" d="M217.346 105.038s-1.085-2.933-1.045-6.789c0-3.896 9.48-9.76 9.279-21.57-.16-9.077-9.841-22.493-25.667-22.333l-12.733.523c-13.898.12-24.944 12.21-25.547 21.85h-.04c0 .282 0 .563.04.804v.241c.764 16.067 11.93 15.384 7.713 26.751l48 .523z"/>
        <path fill="#FFF" d="M204.613 77.242h-3.254l-17.674-18.557 20.928 1.687z"/>
        <path fill="#2B2B2B" d="M216.301 98.892h-.12a.683.683 0 0 1-.522-.803c.361-1.808 1.526-3.415 2.972-5.383 1.004-1.365 2.129-2.892 3.213-4.82.161-.321.603-.442.924-.24.322.16.442.602.241.923-1.124 2.008-2.29 3.575-3.294 4.98-1.365 1.848-2.41 3.335-2.771 4.901-.04.201-.321.442-.643.442z"/>
        <path fill="#F1CBB4" d="M183.685 58.685l-8.154-.884s3.696-2.852 13.979-3.575l-5.825 4.459z"/>
        <path fill="#BF9680" d="M197.342 65.352l-13.657-6.708 4.78-31.41 17.674 1.847-1.647 32.094c-.241 3.535-3.977 5.744-7.15 4.177z"/>
        <path fill="#BF9680" d="M209.754 46.514l-11.126.2c-5.744.121-10.524-4.458-10.645-10.242l-.321-16.79c-.16-9.198 7.15-16.83 16.348-16.99 9.198-.161 16.83 7.149 16.99 16.347l.282 15.384c.2 6.548-4.98 11.97-11.528 12.09z"/>
        <path fill="#2B2B2B" d="M221.121 25.747c-.843-.2-1.486-.924-1.486-1.847 0-.884.603-1.607 1.406-1.808l.08 3.655z"/>
        <path fill="#FFF" d="M219.756 33.38s-3.495 7.35-6.708-.322l6.708.321z"/>
        <path fill="#2B2B2B" d="M205.215 46.554l-7.712-.763 7.31 8.435z"/>
        <circle cx="210.678" cy="24.181" r="1.888" fill="#2B2B2B"/>
        <path fill="#2B2B2B" d="M223.531 30.367a6.506 6.506 0 0 1-6.507-6.508 6.48 6.48 0 0 1 6.507-6.507 6.48 6.48 0 0 1 6.507 6.507 6.506 6.506 0 0 1-6.507 6.508zm0-11.649c-2.852 0-5.141 2.33-5.141 5.141 0 2.812 2.33 5.142 5.141 5.142 2.812 0 5.142-2.33 5.142-5.142 0-2.811-2.29-5.141-5.142-5.141z"/>
        <path fill="#C98E6E" d="M216.301 23.618l2.41 2.772c.482.562.402 1.406-.16 1.848l-1.527.964"/>
        <path fill="#2B2B2B" d="M217.024 29.885c-.2 0-.442-.121-.562-.322a.656.656 0 0 1 .2-.924l1.487-.924c.12-.08.2-.24.2-.401 0-.16-.04-.362-.16-.482l-2.41-2.772a.646.646 0 0 1 .08-.924.646.646 0 0 1 .924.08l2.41 2.772c.362.402.522.964.482 1.486a1.915 1.915 0 0 1-.723 1.326l-.04.04-1.526.964c-.12.04-.241.08-.362.08z"/>
        <path fill="#2B2B2B" d="M210.035 30.648a6.506 6.506 0 0 1-6.507-6.507 6.48 6.48 0 0 1 6.507-6.508 6.48 6.48 0 0 1 6.507 6.508 6.506 6.506 0 0 1-6.507 6.507zm0-11.649c-2.852 0-5.141 2.33-5.141 5.142 0 2.811 2.33 5.141 5.141 5.141 2.812 0 5.142-2.33 5.142-5.141 0-2.812-2.29-5.142-5.142-5.142z"/>
        <path fill="#2B2B2B" d="M217.707 24.341l-1.928-.08c-.361 0-.643-.321-.643-.683 0-.361.322-.642.683-.642l1.888.08c.362 0 .643.321.643.683a.634.634 0 0 1-.643.642z"/>
        <path fill="#10182A" d="M220.76 11.528c-7.31 3.776-16.75 3.294-21.65.964l-.844 12.21h-4.137l-6.226 6.106-.08-11.849c-.08-9.359 7.591-16.95 16.99-16.71l13.938.362c.764 0 1.527.24 2.17.602 3.253 1.768 3.213 6.548-.161 8.315z"/>
        <path fill="#BF9680" d="M192.482 29.724l3.816.12.24-7.19c.041-1.687-1.244-3.092-2.931-3.133l-.763-.04c-1.688-.04-3.093 1.245-3.134 2.932l-.12 4.138a2.949 2.949 0 0 0 2.892 3.173z"/>
        <path fill="#86A488" d="M353.272 238.594c-110.018-26.51-220.96 26.51-330.98 0V98.772c110.02 26.51 220.962-26.51 330.98 0v139.822z"/>
        <path fill="#C8D6C9" d="M334.795 147.896v33.178c-19.481-3.414-35.628 12.774-35.628 31.853v.482c-74.792-2.771-148.017 18.236-222.769 15.424v-.482c0-20.003-16.589-36.11-35.628-39.444V155.73c19.481 3.414 35.628-12.773 35.628-31.853 74.752 2.772 147.977-18.236 222.769-15.464 0 20.083 16.589 36.19 35.628 39.484z"/>
        <path fill="#FFF" d="M335.478 111.063c-.16 1.004-.281 1.526-.442 2.53a.875.875 0 0 1-.2.322c-.081.08-.202.08-.362.08h-.04c-.804-.241-1.688-.442-2.692-.643-1.004-.2-1.928-.401-2.811-.522a7.843 7.843 0 0 0-.924-.08c-.281 0-.522.04-.723.16-.201.08-.362.241-.482.442s-.161.482-.161.884c0 .281.08.522.281.803.201.241.563.563 1.085.964 1.205.884 1.807 1.366 3.012 2.25 1.045.763 1.768 1.566 2.17 2.41.401.843.602 1.647.602 2.41 0 .924-.12 1.727-.402 2.41-.281.683-.683 1.285-1.205 1.727-.522.482-1.165.803-1.888 1.044-.723.241-1.526.322-2.41.282-.16.964-.281 1.446-.442 2.41a.625.625 0 0 1-.24.32.648.648 0 0 1-.362.121c-1.165-.16-1.727-.24-2.892-.401-.281-.04-.442-.201-.442-.522v-.08c.16-.925.241-1.366.402-2.29-.643-.12-1.246-.241-1.768-.402a32.793 32.793 0 0 1-1.486-.482c-.281-.08-.402-.241-.402-.482v-.08c.161-1.004.282-1.527.442-2.53.04-.121.12-.242.201-.322.12-.08.241-.12.362-.08h.04c.28.08.602.16 1.044.24.442.08.884.161 1.366.282.482.08.924.2 1.365.24.442.081.844.121 1.125.201.402.04.763.08 1.125.08.321 0 .643-.08.884-.2.24-.12.401-.321.562-.562.12-.241.2-.603.2-1.085 0-.281-.08-.562-.28-.843-.201-.282-.523-.603-1.045-1.045l-3.213-2.61c-.884-.724-1.527-1.447-1.888-2.25a5.201 5.201 0 0 1-.522-2.21c0-.883.12-1.606.401-2.249.282-.642.643-1.164 1.085-1.566.442-.402 1.044-.723 1.687-.924.643-.2 1.366-.281 2.169-.281l.402-2.21c.04-.12.12-.24.24-.32.121-.081.242-.121.402-.081a71.86 71.86 0 0 1 2.892.442c.282.04.402.2.402.482v.12c-.16.844-.24 1.286-.402 2.13.764.16 1.487.36 2.17.562.682.2 1.204.401 1.566.522.12.04.2.12.281.2.08.08.12.161.16.282 0-.04 0-.04 0 0zM335.478 202.243c-.16 1.004-.281 1.526-.442 2.53a.875.875 0 0 1-.2.322c-.081.08-.202.08-.362.08h-.04c-.804-.241-1.688-.442-2.692-.643-1.004-.2-1.928-.401-2.811-.522a7.843 7.843 0 0 0-.924-.08c-.281 0-.522.04-.723.16-.201.08-.362.241-.482.442s-.161.482-.161.884c0 .281.08.522.281.803.201.241.563.563 1.085.964 1.205.884 1.807 1.366 3.012 2.25 1.045.763 1.768 1.566 2.17 2.41.401.843.602 1.647.602 2.41 0 .924-.12 1.727-.402 2.41-.281.683-.683 1.285-1.205 1.727-.522.482-1.165.803-1.888 1.044-.723.241-1.526.322-2.41.281-.16.964-.281 1.447-.442 2.41a.625.625 0 0 1-.24.322.648.648 0 0 1-.362.12c-1.165-.16-1.727-.24-2.892-.401-.281-.04-.442-.201-.442-.522v-.08c.16-.925.241-1.367.402-2.29-.643-.12-1.246-.241-1.768-.402-.522-.16-1.044-.321-1.486-.482-.281-.08-.402-.241-.402-.482v-.08c.161-1.005.282-1.527.442-2.53.04-.121.12-.242.201-.322.12-.08.241-.12.362-.08h.04c.28.08.602.16 1.044.24.442.08.884.161 1.366.282.482.08.924.2 1.365.24.442.08.844.121 1.125.201.402.04.763.08 1.125.08.321 0 .643-.08.884-.2.24-.12.401-.321.562-.562.12-.241.2-.603.2-1.085 0-.281-.08-.562-.28-.843-.201-.282-.523-.603-1.045-1.045l-3.213-2.61c-.884-.724-1.527-1.447-1.888-2.25a5.201 5.201 0 0 1-.522-2.21c0-.883.12-1.606.401-2.249.282-.642.643-1.164 1.085-1.566a4.914 4.914 0 0 1 1.687-.924c.643-.2 1.366-.281 2.169-.281l.402-2.21c.04-.12.12-.24.24-.32.121-.081.242-.121.402-.081a71.86 71.86 0 0 1 2.892.442c.282.04.402.2.402.482v.12c-.16.844-.24 1.286-.402 2.13.764.16 1.487.36 2.17.561.682.201 1.204.402 1.566.523.12.04.2.12.281.2.08.08.12.161.16.282 0-.04 0-.04 0 0zM55.913 120.984c-.16 1.004-.281 1.526-.442 2.53a.875.875 0 0 1-.2.322c-.081.08-.202.12-.362.08h-.04c-.804-.2-1.687-.361-2.692-.522-1.004-.16-1.928-.321-2.811-.442a7.843 7.843 0 0 0-.924-.08c-.281 0-.522.04-.723.16-.201.081-.362.242-.482.442-.12.201-.16.482-.16.884 0 .281.08.563.28.804.201.24.563.562 1.085.964l3.012 2.209c1.045.763 1.768 1.526 2.17 2.33.401.803.602 1.606.602 2.41 0 .923-.12 1.727-.402 2.41a4.615 4.615 0 0 1-1.205 1.767c-.522.482-1.165.843-1.888 1.084a6.617 6.617 0 0 1-2.41.322c-.16.964-.28 1.446-.442 2.41a.625.625 0 0 1-.24.321.648.648 0 0 1-.362.12 71.86 71.86 0 0 1-2.892-.441c-.281-.04-.442-.201-.442-.522v-.08c.16-.925.241-1.366.402-2.25a10.248 10.248 0 0 1-1.768-.482 12.755 12.755 0 0 1-1.486-.562c-.281-.08-.401-.282-.401-.523v-.08c.16-1.004.28-1.486.441-2.49.04-.12.12-.241.201-.322.12-.08.241-.12.362-.08h.04c.281.08.602.16 1.044.281.442.12.884.201 1.366.321.482.121.924.201 1.366.282.441.08.843.16 1.124.2.402.04.763.08 1.125.08.321 0 .643-.08.884-.2.24-.12.401-.321.562-.562.12-.241.2-.603.2-1.085 0-.281-.08-.562-.28-.843-.201-.282-.522-.603-1.045-1.045a186.697 186.697 0 0 1-3.213-2.65c-.884-.724-1.526-1.487-1.888-2.29-.361-.804-.522-1.527-.522-2.25 0-.883.12-1.606.402-2.25.28-.602.642-1.124 1.084-1.525.482-.402 1.044-.683 1.687-.884.643-.2 1.366-.281 2.17-.281l.4-2.21c.041-.12.121-.24.242-.32.12-.081.24-.121.402-.121 1.164.16 1.727.24 2.892.401.28.04.401.201.401.482v.12c-.16.844-.24 1.286-.401 2.13.763.16 1.486.321 2.169.482.682.16 1.205.321 1.566.442.12.04.201.12.281.2.08.08.12.161.12.282.041.04.041.08.041.12zM55.913 212.164c-.16 1.004-.281 1.526-.442 2.53a.875.875 0 0 1-.2.322c-.081.08-.202.12-.362.08h-.04c-.804-.2-1.687-.361-2.692-.522-1.004-.16-1.928-.321-2.811-.442a7.843 7.843 0 0 0-.924-.08c-.281 0-.522.04-.723.16-.201.08-.362.242-.482.442-.12.201-.16.482-.16.884 0 .281.08.562.28.803.201.241.563.563 1.085.964l3.012 2.21c1.045.763 1.768 1.526 2.17 2.33.401.803.602 1.606.602 2.41 0 .923-.12 1.727-.402 2.41a4.615 4.615 0 0 1-1.205 1.767c-.522.482-1.165.843-1.888 1.084a6.617 6.617 0 0 1-2.41.322c-.16.964-.28 1.446-.442 2.41a.625.625 0 0 1-.24.321.648.648 0 0 1-.362.12 71.861 71.861 0 0 1-2.892-.441c-.281-.04-.442-.201-.442-.522v-.08c.16-.925.241-1.367.402-2.25a10.248 10.248 0 0 1-1.768-.482 12.755 12.755 0 0 1-1.486-.563c-.281-.08-.401-.28-.401-.522v-.08c.16-1.004.28-1.486.441-2.49.04-.12.12-.241.201-.322.12-.08.241-.12.362-.08h.04c.281.08.602.16 1.044.281.442.12.884.2 1.366.321.482.12.924.201 1.366.282.441.08.843.16 1.124.2.402.04.763.08 1.125.08.321 0 .643-.08.884-.2.24-.12.401-.321.562-.562.12-.241.2-.603.2-1.085 0-.281-.08-.562-.28-.843-.201-.282-.522-.603-1.045-1.045a186.697 186.697 0 0 1-3.213-2.65c-.884-.724-1.526-1.487-1.888-2.29-.361-.804-.522-1.527-.522-2.25 0-.883.12-1.606.402-2.25.28-.602.642-1.124 1.084-1.525.482-.402 1.044-.683 1.687-.884.643-.201 1.366-.281 2.17-.281l.4-2.21c.041-.12.121-.24.242-.32.12-.081.24-.121.402-.121 1.164.16 1.727.24 2.892.401.28.04.401.201.401.482v.12c-.16.844-.24 1.286-.401 2.13.763.16 1.486.321 2.169.482.682.16 1.205.321 1.566.442.12.04.201.12.281.2.08.08.12.161.12.282.041.04.041.08.041.12zM231.083 163.562c-.04 23.738-20.044 45.148-43.3 48.401-23.378 3.294-43.341-15.183-43.301-38.159.04-23.498 19.602-45.63 43.3-48.401 22.976-2.692 43.341 14.861 43.3 38.159z"/>
        <path fill="#86A092" d="M210.838 211.28a.79.79 0 0 1-.682-.361c-.241-.362-.12-.884.24-1.125 16.55-10.524 26.873-28.479 26.873-46.915 0-19.04-11.448-35.79-28.52-41.694-.4-.16-.642-.603-.481-1.004.16-.402.602-.643 1.004-.482 17.674 6.145 29.563 23.498 29.563 43.22 0 18.959-10.564 37.476-27.595 48.281-.12.04-.24.08-.402.08z"/>
        <path fill="#86A092" d="M231.726 188.746a.948.948 0 0 1-.643-.28c-.643-.804.24-1.648 1.767-2.933 1.486-1.285 3.856-3.133 6.065-4.7 4.057-2.892 4.419-2.811 4.941-2.249l.04.04c.201.281.281.643.12 1.004-.642 1.687-11.206 8.998-12.17 9.159 0-.04-.04-.04-.12-.04zM227.83 195.053c-.322-.04-.563-.201-.684-.482-.441-.924.764-1.607 1.848-2.21a88.653 88.653 0 0 1 3.937-1.968c2.088-.964 4.418-1.968 6.306-2.69 3.213-1.246 3.896-1.326 4.258-.523.08.16.2.562-.12 1.044-1.206 1.647-14.3 6.829-15.546 6.829zM223.933 200.636c-.321 0-.562 0-.643-.04a.977.977 0 0 1-.522-.603c-.04-.16-.08-.602.362-.964 1.084-.924 6.908-2.048 10.283-2.61 2.088-.362 9.037-1.487 10.323-1.045.482.16.602.562.642.723.04.16.08.643-.442 1.044-1.807 1.487-16.549 3.495-20.003 3.495z"/>
        <path fill="#86A488" d="M234.296 207.665h-.843c-3.093-.04-7.03-.24-10.604-.522a81.69 81.69 0 0 1-3.897-.402c-1.365-.2-2.209-.32-2.209-1.164 0-.201.08-.603.562-.924 2.25-1.286 21.65-1.045 23.86.28.482.282.562.684.562.925-.04.964-.642 1.807-7.43 1.807zm-11.488-2.129c4.9.402 12.05.683 15.505.402-3.495-.442-10.685-.602-15.505-.402z"/>
        <path fill="#86A092" d="M164.767 217.024c-.08 0-.201 0-.282-.04-8.354-3.334-15.384-9.198-20.364-16.99-4.82-7.592-7.391-16.389-7.391-25.507 0-9.8 2.852-19.682 8.234-28.519 5.222-8.596 12.572-15.786 21.208-20.887a.779.779 0 0 1 1.085.281.779.779 0 0 1-.281 1.085c-17.393 10.243-28.64 29.081-28.64 48.04 0 8.797 2.45 17.352 7.15 24.663 4.78 7.511 11.568 13.175 19.602 16.388.402.16.602.643.442 1.044-.161.241-.442.442-.763.442z"/>
        <path fill="#86A092" d="M143.719 199.15c-1.406 0-11.127-5.021-12.13-6.869-.282-.522-.121-.964 0-1.125 0 0 0-.04.04-.04.481-.683 1.204-.602 4.498 1.045 1.968 1.004 4.178 2.249 5.784 3.334 2.17 1.405 3.174 2.29 2.611 3.213-.08.16-.321.442-.803.442zM147.495 204.653c-2.41 0-13.577-2.21-15.103-3.897-.442-.482-.322-.923-.282-1.084.282-.803 1.045-.964 5.102-.16a78.557 78.557 0 0 1 7.35 1.887c3.294 1.045 4.218 1.647 3.937 2.611-.04.16-.201.482-.683.603-.04.04-.16.04-.321.04zm-9.118-3.254c.562.16 1.164.281 1.847.442-.602-.16-1.205-.281-1.847-.442zM136.93 210.236c-4.378 0-4.98-.442-5.221-.643a1.088 1.088 0 0 1-.442-1.004c.08-.683.12-1.084 7.993-1.446 3.535-.16 8.275-.24 11.006 0 1.125.08 2.691.241 2.611 1.366 0 .281-.2.562-.442.683-.643.321-7.471.763-9.881.883-2.37.12-4.218.161-5.623.161zM135.645 219.033c-.683 0-.924-.12-1.084-.161-.402-.16-.603-.482-.643-.884-.08-.723-.12-1.124 8.797-3.334 4.057-1.004 9.56-2.209 12.813-2.65 1.808-.242 3.213-.322 3.374.763.04.28-.08.602-.321.763-.563.442-8.275 2.53-11.287 3.253-7.31 1.848-10.323 2.25-11.649 2.25z"/>
        <path fill="#86A488" d="M172.117 187.14c-.2 0-.402-.08-.522-.201-.16-.16-.281-.362-.281-.603v-31.37c0-.322.2-.643.522-.763.321-.121.683-.04.884.24 1.365 1.607 2.731 3.214 4.137 4.82 1.125 1.326 2.29 2.652 3.414 3.977a521.172 521.172 0 0 0 3.133-4.9c1.245-1.928 2.49-3.896 3.736-5.825.16-.2.361-.361.642-.361a.92.92 0 0 1 .683.321 400.024 400.024 0 0 0 3.816 4.82l3.133 3.977c2.49-3.615 4.981-7.19 7.431-10.765a.845.845 0 0 1 .884-.321c.321.12.562.401.562.763.04 10.443.04 21.088.04 31.37a.822.822 0 0 1-.723.804c-5.221.643-10.564 1.326-15.705 1.968-5.141.643-10.444 1.326-15.665 1.968-.04.08-.08.08-.12.08zm.804-30.005v28.278c4.94-.603 9.92-1.246 14.74-1.848 4.901-.643 10.003-1.286 15.024-1.888 0-9.239 0-18.718-.04-28.077a1352.438 1352.438 0 0 1-6.588 9.52.947.947 0 0 1-.643.361.839.839 0 0 1-.642-.321c-1.246-1.607-2.531-3.214-3.816-4.82-1.045-1.326-2.09-2.651-3.133-3.937a326.463 326.463 0 0 0-3.093 4.86c-1.245 1.929-2.49 3.897-3.736 5.825-.12.2-.361.361-.602.361a.94.94 0 0 1-.683-.28l-4.097-4.82c-.884-1.085-1.808-2.13-2.691-3.214zM317.162 156.854h-.08c-15.224-1.487-30.93-1.969-48.081-1.446a.834.834 0 0 1-.844-.764c0-.441.322-.803.764-.843 17.231-.522 33.017-.04 48.32 1.446a.81.81 0 0 1 .724.884.822.822 0 0 1-.803.723zM305.955 167.498h-.04c-7.994-.482-16.429-.723-25.788-.723a.806.806 0 0 1-.803-.803c0-.442.361-.804.803-.804 9.4 0 17.835.241 25.868.723.442.04.763.402.763.844-.04.442-.361.763-.803.763zM93.55 171.233c-12.251 0-23.86-.562-35.187-1.646a.81.81 0 0 1-.723-.884.81.81 0 0 1 .884-.723c15.223 1.486 30.929 1.968 48.08 1.446.442 0 .804.321.844.763.04.442-.322.803-.763.844-4.5.12-8.837.2-13.135.2zM95.478 182.922c-9.4 0-17.834-.24-25.868-.723a.834.834 0 0 1-.763-.843c.04-.442.402-.804.843-.764 7.994.482 16.429.723 25.788.723.442 0 .803.362.803.804a.806.806 0 0 1-.803.803z"/>
        <path fill="#2B2B2B" d="M179.428 99.776l-34.906 29.121s-18.758 40.328-20.766 44.626c-2.049 4.298-8.556 9.319-17.071 5.583l25.345-56.796 22.855-19.763 24.543-2.771z"/>
        <path fill="#BF9680" d="M123.715 163l-4.257 9.479c-2.53 5.623-9.118 8.154-14.742 5.623-5.1-2.29-7.672-7.953-6.185-13.175l3.333-11.89L123.715 163z"/>
        <path fill="#FEDFCC" d="M101.864 153.038l12.332-44.184c.723-2.571 2.209-4.74 4.177-6.267l.804-.642 47.397-37.356c6.708-5.302 16.429-4.137 21.73 2.57 5.303 6.709 4.138 16.43-2.57 21.731l-47.398 37.356 4.981-6.909L123.756 163l-21.892-9.961z"/>
        <path fill="#2B2B2B" d="M170.19 102.266c-.202 0-.403-.08-.523-.24-.241-.282-.2-.724.12-.925l9.239-7.35c.281-.241.723-.201.924.12.24.281.2.723-.12.924l-9.24 7.35c-.12.04-.24.121-.4.121z"/>
        <path fill="#FFF" d="M103.953 145.446l23.096 10.122-3.334 7.431-21.85-9.961z"/>
        <path fill="url(#c)" d="M267.876 325.797s-18.718-31.732-39.605-32.696c-20.887-.964-15.545-19.12-37.958-20.284-22.454-1.165-10.524 27.635-22.333 29.563-11.81 1.968-18.156 10.805-15.706 23.458l115.602-.04z"/>
        <path fill="url(#d)" d="M25.506 258.276c3.575-3.414 23.297 13.135 17.995 17.674-5.262 4.539-22.614-13.255-17.995-17.674z"/>
        <path fill="#FFEEDA" d="M379.702 95.237c-.08-.16-9.881-16.83-22.172-33.259-20.204-26.952-31.411-32.656-37.235-32.696h-.12c-10.565 0-19.964 11.729-25.99 21.61-3.012 4.94-8.033 8.435-13.696 9.6-5.704 1.165-11.448-.08-16.188-3.454-5.382-3.816-10.082-5.503-14.058-5.021l-.482-3.977c4.98-.643 10.644 1.286 16.87 5.744 3.816 2.731 8.435 3.695 13.054 2.772 4.58-.924 8.636-3.776 11.087-7.753 9.52-15.625 19.44-23.538 29.442-23.538h.12c9.842.08 23.418 11.609 40.45 34.343 12.451 16.63 22.292 33.46 22.413 33.62l-3.495 2.009z"/>
    </g>
</svg>
