<svg xmlns="http://www.w3.org/2000/svg" width="51" height="48" viewBox="0 0 51 48">
    <path fill="#878B94" fill-rule="evenodd" d="M40.239 0c.52 0 1.036.008 1.555.1 2.762.49 4.778 2.982 4.8 5.762v21.59c.242.212.476.435.7.67 2.1 2.193 3.285 5.113 3.298 8.151v.001c-.007 1.826-.429 3.635-1.248 5.267-1.14 2.27-3.051 4.185-5.348 5.28-2.51 1.195-5.392 1.515-8.09.806-2.732-.718-5.143-2.421-6.736-4.752-.158-.231-.307-.468-.447-.71H6.26c-2.034 0-3.948-.949-5.067-2.673C.474 38.383.25 37.14.25 35.845V5.863c0-1.332.464-2.603 1.28-3.649C2.669.758 4.432.001 6.258.001zm-1.326 26.123c-.235 0-.47.006-.704.02-.07.003-.141.008-.212.014-.165.013-.33.03-.495.05l-.143.021-.206.035-.04.007c-.134.025-.267.051-.4.08l-.083.019-.118.027-.08.02c-.065.015-.13.032-.194.05h-.005c-.098.027-.195.055-.292.084l-.064.02-.258.081-.044.015c-.093.031-.185.063-.276.097l-.103.039-.199.078-.07.028-.11.048-.04.018-.093.043c-.055.025-.109.05-.162.076l-.112.054-.145.074-.196.104-.147.08-.103.058-.146.085-.02.012c-.064.038-.127.077-.19.117l-.014.008-.169.108-.046.03-.143.097-.094.065-.008.005c-.08.056-.159.113-.237.171l-.117.09c-.074.058-.148.118-.221.18l-.14.119c-.002 0-.003.002-.004.003l-.17.15-.163.15-.159.151-.04.04-.083.083c-.1.1-.197.202-.293.306l-.018.02-.11.122-.08.092-.116.135-.141.171-.09.115c-.07.091-.137.183-.202.276l-.077.111-.064.095-.035.05c-.078.118-.154.237-.227.357l-.015.025c-.026.042-.052.085-.077.129l-.095.163-.001.003-.117.21-.05.097-.051.097-.018.034c-.03.058-.058.117-.087.176l-.021.046c-.055.115-.108.23-.16.347-.007.02-.029.072-.042.103l-.034.086-.046.121-.028.075-.058.16-.034.097-.025.076c-.07.207-.133.416-.19.627-.083.32-.157.643-.212.97l-.036.228-.01.062c0 .01-.002.021-.004.035-.018.155-.034.31-.046.465-.017.222-.028.449-.033.677v.189c.003.79.095 1.574.274 2.338l.036.147v.003c.29 1.131.76 2.206 1.418 3.184.358.532.692.95 1.19 1.452.48.484.946.88 1.433 1.212.554.379 1.14.713 1.754.984l.112.049c-.01-.005.015.005.074.03.076.03.151.06.228.088.153.057.307.112.462.161.314.1.631.19.953.262.714.16 1.207.225 1.96.24.348.006.697 0 1.046-.026.155-.011.31-.025.465-.043l.154-.02.173-.026c2.464-.415 4.536-1.566 6.15-3.45.258-.302.31-.364.514-.654.17-.241.333-.488.484-.743.163-.278.318-.56.456-.851.058-.122.115-.244.168-.368l.053-.128.082-.21c.22-.592.394-1.202.507-1.824.019-.1.037-.202.052-.303l.022-.152c.017-.136.032-.272.043-.408.026-.314.04-.629.04-.944 0-.302-.01-.603-.036-.903-.028-.33-.041-.455-.095-.761-.43-2.431-1.651-4.62-3.561-6.179l-.075-.057c-.097-.078-.196-.155-.295-.23-.175-.13-.354-.254-.539-.373-.68-.438-1.417-.805-2.178-1.08-.753-.264-1.535-.439-2.327-.519-.331-.03-.663-.048-.996-.05zM17.262 1.577H6.064l-.11.002c-.104.004-.209.009-.313.02-.01 0-.194.026-.144.017-.135.022-.27.048-.402.082-.146.037-.292.078-.434.129l-.167.06c-.027.013-.123.053-.13.056-.289.138-.568.298-.827.488l-.048.035-.026.021c-.056.047-.113.094-.168.143-.109.099-.216.2-.316.307-.067.072-.133.144-.196.22l-.09.115c-.077.105-.15.211-.218.322-.077.126-.151.254-.217.387-.033.067-.066.134-.096.202l-.016.036-.019.051c-.23.618-.3 1.004-.3 1.593V36.29c0 .084 0 .167.005.25.004.078.008.157.016.234 0 .01.026.196.017.145.023.135.048.27.082.402.044.17.093.34.154.505.004.01.084.207.042.115.027.06.053.119.082.177.131.265.28.522.455.76l.034.046.07.085c.047.056.095.112.145.166.1.108.203.213.312.312.054.049.109.098.165.145l.116.091c.104.076.21.15.321.218.148.09.298.175.454.25.051.024.102.048.153.07.007.001.132.05.14.053.286.102.579.184.878.232l.065.01.108.012c.078.006.156.013.234.016.08.003.159.005.238.005h21.849c-.463-1.179-.734-2.43-.803-3.694l-.004-.08-.006-.145-.005-.146-.002-.112-.001-.186v-.083c0-.076.002-.152.005-.227v-.048c.013-.389.045-.777.096-1.165l.041-.281.005-.033.043-.248.009-.048c.015-.078.03-.157.047-.235l.006-.035.005-.02.011-.055.035-.15.002-.012c.036-.153.075-.305.117-.457l.008-.025.055-.19.017-.057.05-.159.022-.067.05-.15.023-.068.056-.155.021-.06.078-.204.034-.083.048-.12.048-.112.037-.086.056-.126.03-.065c.02-.047.043-.095.065-.142l.015-.032c.711-1.492 1.735-2.838 3-3.893l.048-.039c.812-.679 1.71-1.241 2.666-1.677l.01-.005.142-.064c1.38-.612 2.872-.96 4.404-.999 2.276-.056 4.542.56 6.471 1.741V5.862c-.001-.183-.008-.366-.029-.547l-.005-.048-.009-.049c-.013-.075-.027-.15-.043-.225-.033-.148-.07-.295-.116-.44-.023-.07-.046-.142-.073-.213l-.048-.121-.006-.017.006.01c-.232-.52-.458-.877-.785-1.23l-.147-.15c-.41-.404-.785-.677-1.385-.935.043.02-.171-.063-.194-.07-.071-.025-.143-.049-.215-.07-.146-.042-.293-.08-.442-.11l-.174-.03-.15-.019c-.156-.013-.313-.021-.47-.021h-11.15v14.93c0 .607-.667.969-1.186.68l-4.974-2.763-4.975 2.763c-.519.289-1.185-.073-1.185-.68V1.577zm23.207 32.361c-.71-.726.403-1.841 1.115-1.114l2.835 2.894c.138.141.208.314.22.487.03.208-.029.432-.22.627l-2.835 2.894c-.712.727-1.826-.388-1.115-1.114l1.518-1.55h-8.122c-.43 0-.788-.358-.788-.787 0-.43.359-.788.788-.788h8.122l-1.518-1.549zm-17.246-.81c.43 0 .788.359.788.788 0 .43-.359.788-.788.788H8.002c-.43 0-.788-.358-.788-.788 0-.43.358-.788.788-.788zm-9.948-5.969c.43 0 .787.359.787.788 0 .43-.358.788-.787.788H8.002c-.43 0-.788-.358-.788-.788 0-.43.358-.788.788-.788zm14.73-25.582h-9.167v13.59l3.652-2.028.253-.14.253-.141c.323-.18.635-.12.934.046l1.705.947 2.37 1.317V1.577z"/>
</svg>
